<?xml version="1.0" encoding="UTF-8"?>
<svg width="300px" height="301px" viewBox="0 0 300 301" version="1.1" xmlns="http://www.w3.org/2000/svg" xmlns:xlink="http://www.w3.org/1999/xlink">
    <title>denim-circle</title>
    <g id="Pillar-Pages" stroke="none" stroke-width="1" fill="none" fill-rule="evenodd">
        <g id="denim-circle" transform="translate(0.084951, 0.665049)" fill="#004E6C">
            <path d="M299.00884,134.575823 C298.502342,129.592061 297.740001,124.584098 296.737375,119.690228 C295.859213,115.403121 294.752868,111.13503 293.503044,106.946457 C284.619436,103.834848 276.078105,99.9971957 267.967211,95.4767183 C268.551499,96.7438349 269.149617,98.0074942 269.690689,99.2867115 C271.334649,103.174495 272.804014,107.1902 274.059025,111.224921 C275.324407,115.295943 276.401365,119.486244 277.26224,123.676545 C278.13003,127.918707 278.792108,132.259402 279.22946,136.582811 C279.677184,140.973638 279.901911,145.44917 279.901911,149.890128 C279.901911,154.329358 279.677184,158.806619 279.22946,163.195717 C278.792108,167.517397 278.13003,171.859822 277.26224,176.100254 C276.401365,180.294012 275.324407,184.484314 274.059025,188.553608 C272.804014,192.588328 271.334649,196.605762 269.68896,200.493545 C268.062287,204.345027 266.219531,208.165392 264.21428,211.856107 C262.234959,215.501876 260.044741,219.109615 257.705858,222.570416 C255.377346,226.019117 252.856953,229.38657 250.219011,232.584613 C247.575883,235.786114 244.751245,238.894266 241.826345,241.819179 C238.884158,244.759651 235.776019,247.584301 232.586633,250.21534 C229.385146,252.858479 226.017707,255.378883 222.572479,257.703947 C219.125522,260.034197 215.517799,262.226153 211.854758,264.215855 C208.167517,266.219386 204.347168,268.058693 200.495703,269.68883 C196.599294,271.336255 192.580148,272.805626 188.554089,274.058913 C184.481355,275.32603 180.292801,276.402993 176.100789,277.260414 C171.863832,278.128207 167.523155,278.792017 163.196308,279.229371 C154.423335,280.123095 145.363404,280.124823 136.585245,279.229371 C132.256669,278.792017 127.915993,278.128207 123.677307,277.260414 C119.49221,276.402993 115.301927,275.32603 111.225736,274.058913 C107.191033,272.803897 103.175345,271.334526 99.2875786,269.690559 C95.4274706,268.055235 91.6053932,266.215928 87.926795,264.215855 C84.2551114,262.219238 80.6473885,260.029011 77.2056173,257.702218 C73.7638461,255.378883 70.3964075,252.860208 67.1949207,250.21534 C64.0055346,247.584301 60.8973957,244.759651 57.9586659,241.824366 C55.0216648,238.883894 52.1970269,235.777471 49.5642707,232.584613 C46.9263286,229.38657 44.4059356,226.019117 42.0774244,222.577331 C39.7402699,219.113072 37.5483232,215.503605 35.565545,211.854378 C33.5672087,208.177493 31.726181,204.355399 30.0925929,200.491817 C28.4503616,196.609219 26.979268,192.590057 25.7225289,188.553608 C24.4536891,184.480856 23.3767311,180.292284 22.5210421,176.103711 C21.6532525,171.859822 20.9911739,167.517397 20.5520931,163.195717 C20.1060977,158.806619 19.8796426,154.329358 19.8796426,149.890128 C19.8796426,145.44917 20.1060977,140.973638 20.5520931,136.582811 C20.9911739,132.259402 21.6532525,127.918707 22.5210421,123.676545 C23.3767311,119.489702 24.4536891,115.299401 25.7208002,111.228378 C26.979268,107.188471 28.4503616,103.171038 30.0925929,99.2867115 C31.7279096,95.4179434 33.5706661,91.5958495 35.565545,87.9241501 C37.5483232,84.271466 39.7402699,80.6654561 42.0756958,77.208112 C44.404207,73.7628686 46.9245999,70.3936868 49.5642707,67.1939148 C52.2073989,63.9906855 55.0303081,60.8842618 57.9586659,57.9576201 C60.895667,55.0223349 64.0020773,52.1976848 67.1949207,49.5631886 C70.4067795,46.9131343 73.7742181,44.3927305 77.2108033,42.0745812 C80.6473885,39.7495173 84.2551114,37.5592898 87.9302523,35.5609449 C91.6053932,33.5643287 95.4274706,31.723293 99.2875786,30.0896979 C103.175345,28.4440021 107.191033,26.9746309 111.224007,25.7213436 C115.301927,24.4524983 119.49221,23.3755357 123.677307,22.519843 C127.91945,21.6520496 132.261855,20.9899682 136.590431,20.5508855 C145.349575,19.6571621 154.428521,19.6571621 163.196308,20.5508855 C167.517969,20.9899682 171.860375,21.6520496 176.104246,22.519843 C180.292801,23.3755357 184.481355,24.4524983 188.555817,25.7213436 C192.580148,26.9729022 196.599294,28.4422734 200.493975,30.0896979 C204.347168,31.7198356 208.167517,33.5608714 211.854758,35.5644023 C215.517799,37.5541038 219.125522,39.74606 222.575936,42.0763099 C226.005607,44.3927305 229.373045,46.9131343 232.586633,49.5631886 C233.642847,50.4344393 234.671402,51.3558215 235.706872,52.265103 L249.795489,38.1764258 C248.295008,36.8332476 246.782426,35.5021701 245.238729,34.2281388 C241.535929,31.1735753 237.655077,28.2745922 233.705079,25.6037939 C229.727421,22.9174376 225.568254,20.390119 221.343398,18.0944425 C217.092612,15.7849367 212.684517,13.6603987 208.238392,11.7796035 C203.742136,9.87979294 199.105857,8.18223699 194.460935,6.73879583 C189.75551,5.27633927 184.922164,4.03169539 180.088818,3.04289498 C175.19324,2.04199386 170.187027,1.27964949 165.208474,0.771419903 C155.114801,-0.257139968 144.668481,-0.257139968 134.578266,0.771419903 C129.592797,1.27964949 124.586585,2.04199386 119.694464,3.04289498 C114.864575,4.03169539 110.027772,5.2746106 105.320618,6.73879583 C100.667053,8.18569433 96.0307745,9.88325029 91.5431613,11.7813322 C87.0883927,13.6655847 82.6785693,15.7901227 78.4381551,18.0944425 C74.2011982,20.395305 70.0437599,22.9226236 66.0816607,25.6020653 C62.1247475,28.2711349 58.2421669,31.175304 54.541096,34.2298675 C50.8624978,37.2654156 47.2824335,40.5205051 43.9046229,43.9000589 C40.5302696,47.2709694 37.2769229,50.8493206 34.2310159,54.5400354 C31.1885663,58.2272929 28.2861385,62.1098903 25.603251,66.0789214 C22.9117203,70.0635104 20.3844127,74.2226954 18.0956608,78.4354692 C15.7965369,82.6707157 13.6720081,87.0805581 11.7843064,91.540532 C9.88796137,96.02125 8.19214142,100.657548 6.74006318,105.319777 C5.27588429,110.025222 4.03297446,114.862047 3.04417832,119.693685 C2.04328153,124.584098 1.28094045,129.592061 0.772713065,134.575823 C0.261028351,139.628731 0,144.781903 0,149.890128 C0,154.996626 0.261028351,160.149797 0.772713065,165.202705 C1.28094045,170.186467 2.04328153,175.192701 3.04417832,180.088301 C4.03297446,184.921668 5.27761295,189.755035 6.74179185,194.463937 C8.19214142,199.12098 9.88796137,203.757278 11.7825777,208.236268 C13.6668221,212.691055 15.7913509,217.102626 18.0956608,221.344788 C20.382684,225.552375 22.908263,229.71156 25.6049797,233.706522 C28.2878671,237.675553 31.1902949,241.552964 34.2292873,245.236764 C37.2630936,248.91365 40.5164403,252.495458 43.9046229,255.881927 C47.2893481,259.264938 50.8659551,262.51657 54.5393674,265.546932 C58.2283376,268.592852 62.1109182,271.497021 66.0747461,274.174734 C70.0437599,276.855905 74.2011982,279.383223 78.4364265,281.682357 C82.6785693,283.988406 87.0883927,286.114672 91.5431613,287.997196 C96.0307745,289.895278 100.667053,291.592834 105.322347,293.041461 C110.027772,294.505646 114.864575,295.746833 119.691007,296.735633 C124.576213,297.736534 129.585883,298.502336 134.578266,299.008837 C139.629424,299.522253 144.782573,299.781553 149.890777,299.781553 C155.000709,299.781553 160.15213,299.522253 165.203288,299.008837 C170.195671,298.502336 175.203612,297.736534 180.088818,296.735633 C184.922164,295.746833 189.75551,294.502189 194.457478,293.041461 C199.105857,291.596291 203.742136,289.900464 208.240121,287.997196 C212.684517,286.118129 217.092612,283.993592 221.343398,281.684086 C225.568254,279.390138 229.727421,276.861091 233.70335,274.176463 C237.668907,271.495293 241.551487,268.592852 245.240457,265.548661 C248.915598,262.51657 252.493934,259.264938 255.878659,255.878469 C259.253012,252.507559 262.508088,248.927479 265.550537,245.238493 C268.591258,241.552964 271.493686,237.675553 274.178302,233.701336 C276.876748,229.706374 279.402327,225.547189 281.684164,221.344788 C283.99366,217.090526 286.119917,212.678955 287.997247,208.237996 C289.895321,203.748635 291.592869,199.114065 293.04149,194.46048 C294.500483,189.763678 295.745122,184.930311 296.737375,180.088301 C297.740001,175.192701 298.502342,170.186467 299.00884,165.202705 C299.520525,160.149797 299.781553,154.996626 299.781553,149.890128 C299.781553,144.781903 299.520525,139.628731 299.00884,134.575823" id="Fill-1"></path>
        </g>
    </g>
</svg>