<?xml version="1.0" encoding="UTF-8"?>
<svg width="250px" height="301px" viewBox="0 0 250 301" version="1.1" xmlns="http://www.w3.org/2000/svg" xmlns:xlink="http://www.w3.org/1999/xlink">
    <title>jade-circle</title>
    <g id="Pillar-Pages" stroke="none" stroke-width="1" fill="none" fill-rule="evenodd">
        <g id="jade-circle" transform="translate(0.000000, 0.458738)" fill="#45AF9A">
            <path d="M244.656636,34.2283303 C240.978172,31.1858697 237.106559,28.2851601 233.148718,25.602263 C229.166734,22.9055366 225.017468,20.3799485 220.819915,18.0946457 C216.57235,15.7816842 212.171301,13.6571477 207.744383,11.7815399 C203.260554,9.88000204 198.635313,8.18417598 193.999725,6.73727852 C189.305501,5.27482301 184.483662,4.03190871 179.663546,3.043109 C174.783072,2.04047994 169.787052,1.27813611 164.813452,0.771635567 C154.735186,-0.256923562 144.332705,-0.256923562 134.257888,0.769906896 C129.282563,1.27813611 124.286544,2.04220861 119.411243,3.043109 C114.591127,4.03190871 109.765839,5.27482301 105.071615,6.73727852 C100.434302,8.18417598 95.809061,9.88000204 91.328682,11.7798113 C86.8914166,13.6606051 82.4903668,15.7851415 78.2531491,18.092917 C74.0486979,20.3816772 69.8994323,22.9089939 65.9243462,25.602263 C61.9665055,28.2799741 58.0948923,31.1824124 54.411255,34.230059 C50.7327914,37.275977 47.1612498,40.5293354 43.8001032,43.8985148 C40.4303338,47.2763376 37.1830075,50.8581435 34.1512498,54.5402123 C31.1074203,58.2395678 28.2101775,62.1204338 25.5457488,66.0756326 C22.8692483,70.0446607 20.3496818,74.202114 18.0543066,78.4339002 C15.7520333,82.6847017 13.6308377,87.0945409 11.7562526,91.5424109 C9.86097291,96.031769 8.1674655,100.668064 6.72574228,105.319917 C5.26504902,110.027088 4.02509807,114.86218 3.03865587,119.692086 C2.04014182,124.584225 1.27961558,129.592184 0.774322637,134.572485 C0.260406945,139.618475 0,144.771642 0,149.888508 C0,155.003645 0.260406945,160.156812 0.774322637,165.202803 C1.27961558,170.18656 2.04014182,175.19452 3.03865587,180.08493 C4.02509807,184.916564 5.26504902,189.753385 6.72574228,194.458827 C8.16919005,199.112409 9.86269746,203.748704 11.7562526,208.236334 C13.6342868,212.685932 15.7537579,217.0975 18.0543066,221.343116 C20.3445081,225.567987 22.8657992,229.72544 25.5440243,233.701383 C28.211902,237.658311 31.1074203,241.539177 34.1512498,245.236803 C37.1899057,248.927516 40.4355075,252.507593 43.7983786,255.875044 C47.1612498,259.249409 50.7327914,262.502767 54.4129796,265.548685 C58.1052396,268.601518 61.9785774,271.505685 65.9191725,274.173024 C69.8839114,276.859379 74.033177,279.384967 78.2514246,281.684099 C82.4869177,283.990146 86.8879675,286.114682 91.3269574,287.997205 C95.8038874,289.895285 100.429129,291.59284 105.071615,293.039737 C109.765839,294.503921 114.591127,295.746836 119.411243,296.735635 C124.303789,297.738265 129.298084,298.504066 134.257888,299.008838 C139.298745,299.520524 144.439627,299.781553 149.53567,299.781553 C154.629989,299.781553 159.77087,299.520524 164.811728,299.008838 C169.769807,298.504066 174.767551,297.738265 179.661822,296.735635 C183.938704,295.857471 188.203514,294.751121 192.39072,293.497835 C195.496633,284.607281 199.33548,276.067647 203.85035,267.951538 C202.575908,268.542743 201.303191,269.144321 200.016677,269.688852 C196.13989,271.334547 192.132038,272.803917 188.10694,274.057203 C184.043902,275.324319 179.865319,276.403009 175.686736,277.258701 C171.44262,278.128223 167.108827,278.792032 162.809526,279.229386 C154.052265,280.123109 145.019075,280.123109 136.260089,279.229386 C131.960788,278.792032 127.62872,278.128223 123.384604,277.258701 C119.207746,276.403009 115.027438,275.324319 110.962676,274.057203 C106.937578,272.803917 102.93145,271.334547 99.0546628,269.688852 C95.2037442,268.056987 91.3907657,266.214224 87.7174757,264.214152 C84.0597066,262.222723 80.4622968,260.030768 77.0235455,257.702249 C73.6003151,255.38583 70.2408931,252.865428 67.0366805,250.215375 C63.8410906,247.570509 60.7438001,244.74759 57.820689,241.819221 C54.901027,238.892582 52.0865626,235.787889 49.4480021,232.582933 C46.8042681,229.37452 44.2915997,226.007069 41.9772546,222.572201 C39.6542867,219.123502 37.4675581,215.517495 35.4826019,211.854442 C33.4872984,208.172373 31.6489288,204.350282 30.0209543,200.49016 C28.3791833,196.604108 26.9133164,192.586677 25.6630182,188.553688 C24.397199,184.479211 23.3228048,180.288913 22.4691529,176.102072 C21.6034291,171.859914 20.9429267,167.519221 20.5048912,163.19063 C20.0599575,158.810178 19.832317,154.332921 19.832317,149.888508 C19.832317,145.442367 20.0599575,140.968567 20.5048912,136.582929 C20.9429267,132.261252 21.6034291,127.918831 22.4691529,123.674944 C23.3228048,119.489832 24.397199,115.301262 25.6630182,111.223328 C26.9133164,107.193796 28.3791833,103.178094 30.0226788,99.2851274 C31.6472042,95.4319202 33.4855738,91.6081004 35.4826019,87.9260315 C37.4710072,84.2543348 39.6577358,80.6483275 41.9789791,77.2030865 C44.2915997,73.771675 46.8042681,70.4042243 49.4480021,67.1923539 C52.0796644,63.9960416 54.8975779,60.8896202 57.8241381,57.9560658 C60.7438001,55.0294261 63.8410906,52.204778 67.0366805,49.5616404 C70.2305458,46.9185027 73.5916924,44.3998293 77.0269946,42.0747671 C80.4760932,39.7376042 84.073503,37.5473783 87.7174757,35.5628642 C91.3942148,33.5610634 95.2054688,31.7217577 99.0546628,30.0898924 C102.936623,28.4424691 106.944476,26.973099 110.962676,25.7198126 C115.027438,24.4526969 119.207746,23.375735 123.388053,22.5183143 C127.614924,21.6505216 131.945267,20.9884406 136.263539,20.5476296 C145.012177,19.6573641 154.055714,19.6556354 162.809526,20.5493582 C167.122624,20.9884406 171.454692,21.6505216 175.686736,22.5183143 C179.865319,23.375735 184.043902,24.4526969 188.10694,25.7198126 C192.126864,26.973099 196.132992,28.4424691 200.020126,30.0916211 C203.858973,31.7165716 207.670227,33.5593347 211.353864,35.5645929 C214.996112,37.5456496 218.591798,39.7376042 222.04607,42.0747671 C225.481372,44.401558 228.840794,46.9202314 232.03466,49.5616404 C233.202179,50.5262387 234.342106,51.5426971 235.483758,52.5574269 L249.538835,38.4670311 C247.93328,37.0201337 246.308754,35.5957089 244.656636,34.2283303" id="Fill-1"></path>
        </g>
    </g>
</svg>