<?xml version="1.0" encoding="UTF-8"?>
<svg width="250px" height="301px" viewBox="0 0 250 301" version="1.1" xmlns="http://www.w3.org/2000/svg" xmlns:xlink="http://www.w3.org/1999/xlink">
    <title>ocean-circle</title>
    <g id="Pillar-Pages" stroke="none" stroke-width="1" fill="none" fill-rule="evenodd">
        <g id="ocean-circle" transform="translate(0.461165, 0.368932)" fill="#1B77AF">
            <path d="M246.499446,119.692387 C245.517383,114.874543 244.274703,110.039413 242.809376,105.320104 C241.36476,100.668214 239.671608,96.031882 237.774795,91.5407597 C235.898693,87.0997692 233.779232,82.6916236 231.471644,78.432145 C229.184767,74.2176122 226.663162,70.0601259 223.97414,66.0737794 C221.295473,62.1064485 218.399338,58.2255517 215.361675,54.5399964 C212.32919,50.8561697 209.079235,47.276064 205.705013,43.8982145 C202.330791,40.5186363 198.756359,37.265252 195.083548,34.2279533 C191.398656,31.1820112 187.52391,28.2795499 183.564592,25.6018176 C179.579386,22.9050698 175.426762,20.3794617 171.225813,18.0941408 C166.978262,15.7828896 162.573651,13.6583363 158.141424,11.780985 C153.653968,9.87943199 149.024984,8.18359248 144.383918,6.73668354 C139.68417,5.27248776 134.856702,4.0295636 130.036138,3.04248474 C125.155166,2.03984772 120.155104,1.27576917 115.174027,0.770993293 C105.096235,-0.257573992 94.6784317,-0.255845308 84.5954618,0.769264608 C79.6143849,1.27576917 74.6143226,2.03984772 69.7350764,3.04248474 C65.4564591,3.91892779 61.1881975,5.02528588 56.9941514,6.27858215 C53.8857247,15.1692066 50.0437714,23.7089081 45.5252478,31.8268106 C46.800721,31.2356005 48.0744684,30.6340182 49.3602973,30.0894826 C53.2471251,28.4420463 57.258221,26.9709358 61.2779466,25.7193682 C65.3511765,24.4522424 69.5331409,23.3735433 73.7133794,22.5178445 C77.9453962,21.6500448 82.2809697,20.9879587 86.6027356,20.5471441 C95.356728,19.6568716 104.412761,19.6551429 113.168479,20.5488728 C117.486793,20.9879587 121.822367,21.6500448 126.056109,22.5178445 C130.236348,23.3735433 134.418312,24.4522424 138.48809,25.7193682 C142.511268,26.9709358 146.520638,28.4420463 150.409191,30.0912113 C154.252871,31.7179034 158.067209,33.5589524 161.752101,35.5642265 C165.397297,37.5452989 168.995892,39.7355422 172.454685,42.076181 C175.891041,44.399533 179.253182,46.9182264 182.447906,49.5596563 C185.635726,52.1959002 188.742427,55.0222993 191.673081,57.9576056 C194.598558,60.8894546 197.418752,63.9959006 200.05427,67.193967 C202.689787,70.3920333 205.206215,73.7612395 207.527611,77.2030503 C209.859362,80.6604193 212.047861,84.2681839 214.029245,87.9208943 C216.029615,91.6116357 217.869473,95.4354859 219.495313,99.2852663 C221.136686,103.176535 222.603739,107.192269 223.856775,111.223562 C225.125345,115.313629 226.202334,119.502232 227.054951,123.675276 C227.921375,127.917468 228.582412,132.261652 229.019076,136.583363 C229.466096,140.972493 229.690469,145.448058 229.690469,149.889048 C229.690469,154.32831 229.466096,158.805603 229.019076,163.194733 C228.582412,167.518173 227.921375,171.860628 227.054951,176.101091 C226.202334,180.277593 225.125345,184.467924 223.856775,188.554535 C222.603739,192.587555 221.136686,196.605018 219.495313,200.491101 C217.866021,204.344339 216.027889,208.169918 214.030971,211.853744 C212.049586,215.504726 209.861088,219.114219 207.529337,222.571588 C205.204489,226.018585 202.688062,229.387791 200.05427,232.584129 C197.413574,235.787381 194.595106,238.893828 191.673081,241.822219 C188.738975,244.757525 185.639178,247.582196 182.449632,250.216711 C179.244552,252.866784 175.880686,255.385478 172.451233,257.703644 C169.009699,260.03391 165.407652,262.225882 161.750375,264.215598 C158.068935,266.219144 154.252871,268.060193 150.407466,269.690342 C146.527541,271.334321 142.516446,272.805432 138.491542,274.058728 C134.418312,275.325854 130.236348,276.404553 126.056109,277.260252 C121.810285,278.12978 117.472986,278.793595 113.168479,279.230952 C104.409309,280.122953 95.3636318,280.122953 86.5992837,279.230952 C82.2947772,278.793595 77.9592037,278.12978 73.7116534,277.260252 C69.5331409,276.404553 65.3511765,275.325854 61.2796725,274.058728 C57.2513172,272.805432 53.2419473,271.334321 49.3602973,269.690342 C45.5131662,268.060193 41.698828,266.219144 38.0173876,264.215598 C34.3601104,262.225882 30.7597894,260.03391 27.3130775,257.701915 C23.887077,255.385478 20.5249364,252.866784 17.3181308,250.216711 C16.216978,249.305694 15.1451662,248.348003 14.0681766,247.395498 L0,261.484277 C1.54299471,262.868953 3.09807104,264.238071 4.68421437,265.550143 C8.37946233,268.603 12.2559345,271.50719 16.2031704,274.17455 C20.1745696,276.862654 24.325467,279.389991 28.5436762,281.683955 C32.7877747,283.995206 37.19066,286.118031 41.6280643,287.997111 C46.1086171,289.896935 50.7376013,291.592775 55.3855708,293.041412 C60.0835927,294.505608 64.9127865,295.748532 69.7350764,296.735611 C74.631582,297.739977 79.6316443,298.504056 84.5954618,299.008831 C89.6386727,299.522251 94.7837143,299.781553 99.8838814,299.781553 C104.985774,299.781553 110.12909,299.522251 115.172301,299.008831 C120.136118,298.504056 125.137907,297.739977 130.034412,296.735611 C134.856702,295.748532 139.68417,294.505608 144.385644,293.041412 C149.031887,291.592775 153.660872,289.896935 158.141424,287.997111 C162.578829,286.118031 166.979988,283.995206 171.225813,281.683955 C175.442296,279.389991 179.594919,276.862654 183.562866,274.178007 C187.513554,271.50719 191.390026,268.603 195.083548,265.550143 C198.756359,262.512844 202.330791,259.25946 205.703287,255.879882 C209.072332,252.508947 212.32056,248.928841 215.361675,245.2381 C218.397612,241.554273 221.295473,237.675105 223.975866,233.700859 C226.666614,229.711055 229.188219,225.553569 231.47337,221.342494 C233.77578,217.08993 235.896967,212.681784 237.773069,208.237336 C239.668156,203.749671 241.363034,199.11334 242.809376,194.459721 C244.274703,189.742141 245.515657,184.905281 246.499446,180.085709 C247.500494,175.195261 248.261636,170.187262 248.767338,165.203464 C249.279943,160.148791 249.538835,154.997311 249.538835,149.889048 C249.538835,144.780785 249.279943,139.629305 248.767338,134.576361 C248.261636,129.592563 247.500494,124.584564 246.499446,119.692387 Z" id="Fill-1"></path>
        </g>
    </g>
</svg>