<?xml version="1.0" encoding="UTF-8"?>
<svg width="489px" height="48px" viewBox="0 0 489 48" version="1.1" xmlns="http://www.w3.org/2000/svg" xmlns:xlink="http://www.w3.org/1999/xlink">
    <!-- Generator: Sketch 63.1 (92452) - https://sketch.com -->
    <title>slider-pattern</title>
    <desc>Created with Sketch.</desc>
    <defs>
        <polygon id="path-1" points="0 0 489 0 489 47.4318707 0 47.4318707"></polygon>
        <linearGradient x1="100%" y1="37.2202159%" x2="8.05201204%" y2="52.1618325%" id="linearGradient-3">
            <stop stop-color="#FF8200" offset="0%"></stop>
            <stop stop-color="#DA291C" offset="100%"></stop>
        </linearGradient>
    </defs>
    <g id="Page-1" stroke="none" stroke-width="1" fill="none" fill-rule="evenodd">
        <g id="slider-pattern">
            <mask id="mask-2" fill="white">
                <use xlink:href="#path-1"></use>
            </mask>
            <g id="Mask"></g>
            <g id="Group-14" mask="url(#mask-2)">
                <g transform="translate(0.000000, -185.210162)">
                    <path d="M476.955338,0 L464.521447,12.4401775 L464.521447,36.679329 L464.335475,36.4932624 L427.860655,0 L403.412521,0 L440.18393,36.7900006 L414.564653,62.4222307 L365.667695,111.344603 L330.048072,146.982236 L330.263773,146.982236 L293.37207,183.891209 L268.95643,183.891209 L280.981042,195.922593 L317.840252,232.801131 L317.840252,232.793522 L328.994458,221.634368 L377.891416,172.711996 L391.181195,159.416188 L391.181195,183.868383 L391.186726,183.671941 L391.189492,183.868383 L390.11652,184.942589 L341.21887,233.86427 L317.840252,257.254709 L317.840252,257.262317 L317.654279,257.075559 L268.757321,208.153186 L244.507605,183.891209 L268.923245,183.891209 L280.096808,172.711996 L305.814948,146.982236 L305.599247,146.982236 L353.443283,99.1133185 L402.340241,50.1916375 L415.735105,36.7900006 L391.181195,12.2236762 L391.181195,0 L379.160731,0 L365.667695,13.4998579 L317.840252,61.3507914 L317.840252,61.3584001 L293.405254,36.9096643 L317.820894,36.9096643 L353.443283,1.2699564 L354.712597,0 L330.263773,0 L293.37207,36.9096643 L268.95643,36.9096643 L280.981042,48.9410486 L317.840252,85.8188948 L317.840252,85.8119778 L328.994458,74.6528239 L377.891416,25.7304511 L391.181195,12.4346439 L391.181195,36.8868382 L391.186726,36.6903962 L391.189492,36.8868382 L390.11652,37.9610443 L341.21887,86.8834171 L317.840252,110.273164 L317.840252,110.280773 L317.654279,110.093323 L268.757321,61.1723335 L244.507605,36.9096643 L268.923245,36.9096643 L280.096808,25.7304511 L305.814948,0 L281.366123,0 L267.872396,13.4998579 L244.5,36.8847631 L244.5,36.8840715 L194.512786,86.8834171 L171.116884,110.291148 L171.136934,110.291148 L183.162238,122.322533 L207.808788,146.982236 L220.022139,159.199687 L220.022139,146.982236 L220.022139,134.744034 L231.185332,123.575197 L244.5,110.267631 L244.5,110.284923 L244.506222,110.291148 L268.925319,110.291148 L267.872396,111.344603 L244.5,134.729509 L232.239638,146.982236 L232.454647,146.982236 L220.022139,159.42103 L220.022139,183.661565 L219.835475,183.474807 L183.361346,146.982236 L170.937825,134.552434 L146.6888,110.291148 L146.681195,110.291148 L146.681195,134.739192 L145.615828,135.805098 L134.444339,146.982236 L134.660731,146.982236 L121.167004,160.482094 L73.3409433,208.332336 L73.3409433,208.339945 L48.9045629,183.891209 L73.3202029,183.891209 L108.943283,148.252193 L110.211906,146.982236 L109.996205,146.982236 L133.391416,123.575197 L182.288374,74.6528239 L231.185332,25.7304511 L244.5,12.4235768 L255.648675,1.2699564 L256.917298,0 L232.454647,0 L220.022139,12.4401775 L220.022139,36.679329 L219.835475,36.4932624 L183.361346,0 L158.912521,0 L195.683238,36.7900006 L170.064653,62.4222307 L121.167004,111.344603 L85.5473807,146.982236 L85.7630812,146.982236 L48.8713782,183.891209 L24.4557382,183.891209 L36.4817337,195.922593 L73.3409433,232.801131 L73.3409433,232.793522 L84.4937666,221.634368 L133.391416,172.711996 L146.681195,159.416188 L146.681195,183.868383 L146.686726,183.671941 L146.689492,183.868383 L145.615828,184.942589 L96.7181789,233.86427 L73.3409433,257.254709 L73.3409433,257.262317 L73.1542794,257.075559 L24.25663,208.153186 L0.00760482615,183.891209 L24.4232448,183.891209 L35.5968085,172.711996 L61.3142565,146.982236 L61.0992473,146.982236 L108.943283,99.1133185 L157.839549,50.1916375 L171.234414,36.7900006 L146.681195,12.2236762 L146.681195,0 L134.660731,0 L121.167004,13.4998579 L73.3409433,61.3507914 L73.3409433,61.3584001 L48.9045629,36.9096643 L73.3202029,36.9096643 L108.943283,1.2699564 L110.211906,0 L85.7630812,0 L48.8713782,36.9096643 L24.4557382,36.9096643 L36.4817337,48.9410486 L73.3409433,85.8188948 L73.3409433,85.8119778 L84.4937666,74.6528239 L133.391416,25.7304511 L146.681195,12.4346439 L146.681195,36.8868382 L146.686726,36.6903962 L146.689492,36.8868382 L145.615828,37.9610443 L96.7181789,86.8834171 L73.3409433,110.273164 L73.3409433,110.280773 L73.1542794,110.093323 L24.25663,61.1723335 L0.00760482615,36.9096643 L24.4232448,36.9096643 L35.5968085,25.7304511 L61.3142565,0 L36.8661231,0 L23.3723961,13.4998579 L0,36.8847631 L0,61.3459495 L0,61.363242 L12.032909,73.402235 L48.9024889,110.291148 L73.322277,110.291148 L47.8212208,135.805098 L36.6497312,146.982236 L36.8661231,146.982236 L23.3723961,160.482094 L0,183.866999 L0,208.326802 L0,208.344786 L12.032909,220.384471 L48.9024889,257.272693 L73.322277,257.272693 L47.8212208,282.786643 L36.6497312,293.963089 L36.8661231,293.963089 L23.3723961,307.462947 L0,330.847852 L0,355.309039 L0,355.327023 L12.032909,367.365324 L48.9024889,404.254237 L73.322277,404.254237 L47.8212208,429.768187 L36.6497312,440.945325 L58.9920191,440.945325 L61.0992473,440.945325 L108.943283,393.077099 L157.839549,344.155418 L171.234414,330.753781 L146.681195,306.187457 L146.681195,293.963089 L146.681195,283.852548 L146.681195,281.726271 L158.714104,293.764572 L158.91183,293.963089 L158.912521,293.963089 L195.683238,330.753781 L170.064653,356.386011 L121.167004,405.307692 L85.5473807,440.945325 L109.996205,440.945325 L133.391416,417.538286 L182.288374,368.615913 L231.185332,319.694232 L244.5,306.386666 L255.648675,295.233045 L256.917298,293.963089 L256.701598,293.963089 L280.096808,270.556049 L293.374144,257.272693 L268.954355,257.272693 L244.5,232.805973 L244.5,232.787989 L220.013843,257.272693 L220.022139,257.272693 L220.022139,281.720737 L195.585758,257.272693 L195.565018,257.272693 L206.737199,246.095555 L244.5,208.326802 L244.5,208.344786 L256.532909,220.384471 L293.40318,257.272693 L317.822277,257.272693 L292.321912,282.786643 L281.150423,293.963089 L281.366123,293.963089 L267.872396,307.462947 L244.5,330.847852 L244.5,330.84716 L194.512786,380.846506 L171.116884,404.254237 L171.136934,404.254237 L183.162238,416.285622 L207.808788,440.945325 L220.022139,440.945325 L220.022139,428.707815 L231.185332,417.538286 L244.5,404.23072 L244.5,404.248012 L244.506222,404.254237 L268.925319,404.254237 L267.872396,405.307692 L244.5,428.692598 L232.239638,440.945325 L244.5,440.945325 L256.701598,440.945325 L280.096808,417.538286 L293.374144,404.254237 L268.954355,404.254237 L244.5,379.788209 L244.5,379.769533 L220.013843,404.254237 L220.022139,404.254237 L220.022139,428.702281 L195.585758,404.254237 L195.565018,404.254237 L206.737199,393.077099 L244.5,355.309039 L244.5,355.327023 L256.532909,367.365324 L293.40318,404.254237 L317.822277,404.254237 L292.321912,429.768187 L281.150423,440.945325 L303.492019,440.945325 L305.599247,440.945325 L353.443283,393.077099 L402.340241,344.155418 L415.735105,330.753781 L391.181195,306.187457 L391.181195,293.963089 L391.181195,283.852548 L391.181195,281.726271 L403.213413,293.764572 L403.412521,293.963089 L440.18393,330.753781 L414.564653,356.386011 L365.667695,405.307692 L330.048072,440.945325 L354.496205,440.945325 L377.891416,417.538286 L426.789065,368.615913 L475.686023,319.694232 L489,306.386666 L489,281.710361 L476.739638,293.963089 L476.955338,293.963089 L464.521447,306.403267 L464.521447,330.64311 L464.335475,330.456351 L427.860655,293.963089 L415.438517,281.53467 L391.1888,257.272693 L391.181195,257.272693 L391.181195,281.720737 L390.11652,282.786643 L378.94503,293.963089 L379.160731,293.963089 L365.667695,307.462947 L317.840252,355.314572 L317.840252,355.322181 L293.405254,330.873445 L317.820894,330.873445 L353.443283,295.233045 L354.712597,293.963089 L354.496205,293.963089 L377.891416,270.556049 L426.789065,221.634368 L475.686023,172.711996 L489,159.405121 L489,134.729509 L476.739638,146.982236 L476.955338,146.982236 L464.521447,159.42103 L464.521447,183.661565 L464.335475,183.474807 L427.860655,146.982236 L415.438517,134.552434 L391.1888,110.291148 L391.181195,110.291148 L391.181195,134.739192 L390.11652,135.805098 L378.94503,146.982236 L379.160731,146.982236 L365.667695,160.482094 L317.840252,208.332336 L317.840252,208.339945 L293.405254,183.891209 L317.820894,183.891209 L353.443283,148.252193 L354.712597,146.982236 L354.496205,146.982236 L377.891416,123.575197 L426.789065,74.6528239 L475.686023,25.7304511 L489,12.4235768 L489,0 L476.955338,0 Z M206.737199,99.1133185 L244.5,61.3459495 L244.5,61.363242 L256.532909,73.402235 L293.40318,110.291148 L317.822277,110.291148 L292.321912,135.805098 L281.150423,146.982236 L281.366123,146.982236 L267.872396,160.482094 L244.5,183.866999 L244.5,183.866308 L194.512786,233.86427 L171.116884,257.272693 L171.136934,257.272693 L183.162238,269.304077 L207.808788,293.963089 L220.022139,306.181923 L220.022139,293.963089 L220.022139,281.726271 L231.185332,270.556049 L244.5,257.249867 L244.5,257.267159 L244.506222,257.272693 L268.925319,257.272693 L267.872396,258.326148 L244.5,281.710361 L232.239638,293.963089 L232.454647,293.963089 L220.022139,306.403267 L220.022139,330.64311 L219.835475,330.456351 L183.361346,293.963089 L170.937825,281.53467 L146.6888,257.272693 L146.681195,257.272693 L146.681195,281.720737 L145.615828,282.786643 L134.444339,293.963089 L134.660731,293.963089 L121.167004,307.462947 L73.3409433,355.314572 L73.3409433,355.322181 L48.9045629,330.873445 L73.3202029,330.873445 L108.943283,295.233045 L110.211906,293.963089 L109.996205,293.963089 L133.391416,270.556049 L182.288374,221.634368 L231.185332,172.711996 L244.5,159.405121 L255.648675,148.252193 L256.917298,146.982236 L256.701598,146.982236 L280.096808,123.575197 L293.374144,110.291148 L268.954355,110.291148 L244.5,85.8251201 L244.5,85.8064442 L220.013843,110.291148 L220.022139,110.291148 L220.022139,134.739192 L195.585758,110.291148 L195.565018,110.291148 L206.737199,99.1133185 Z M353.443283,246.095555 L402.340241,197.173874 L415.735105,183.772237 L391.181195,159.205221 L391.181195,146.982236 L391.181195,136.871004 L391.181195,134.744034 L403.213413,146.783027 L403.412521,146.982236 L440.18393,183.772237 L414.564653,209.403775 L365.667695,258.326148 L330.048072,293.963089 L330.263773,293.963089 L293.37207,330.873445 L268.95643,330.873445 L280.981042,342.904829 L317.840252,379.781984 L317.840252,379.775067 L328.994458,368.615913 L377.891416,319.694232 L391.181195,306.397733 L391.181195,330.850619 L391.186726,330.653485 L391.189492,330.850619 L390.11652,331.924133 L341.21887,380.846506 L317.840252,404.236253 L317.840252,404.243862 L317.654279,404.056412 L268.757321,355.135422 L244.507605,330.873445 L268.923245,330.873445 L280.096808,319.694232 L305.814948,293.963089 L305.599247,293.963089 L353.443283,246.095555 Z M108.943283,246.095555 L157.839549,197.173874 L171.234414,183.772237 L146.681195,159.205221 L146.681195,146.982236 L146.681195,136.871004 L146.681195,134.744034 L158.714104,146.783027 L158.91183,146.982236 L158.912521,146.982236 L195.683238,183.772237 L170.064653,209.403775 L121.167004,258.326148 L85.5473807,293.963089 L85.7630812,293.963089 L48.8713782,330.873445 L24.4557382,330.873445 L36.4817337,342.904829 L73.3409433,379.781984 L73.3409433,379.775067 L84.4937666,368.615913 L133.391416,319.694232 L146.681195,306.397733 L146.681195,330.850619 L146.686726,330.653485 L146.689492,330.850619 L145.615828,331.924133 L96.7181789,380.846506 L73.3409433,404.236253 L73.3409433,404.243862 L73.1542794,404.056412 L24.25663,355.135422 L0.00760482615,330.873445 L24.4232448,330.873445 L35.5968085,319.694232 L61.3142565,293.963089 L61.0992473,293.963089 L108.943283,246.095555 Z" id="Fill-5" fill="url(#linearGradient-3)"></path>
                    <polygon id="Fill-7" fill="#FF8200" points="439.057197 233.879612 415.681067 257.360013 415.70179 257.360013 427.715885 269.428392 452.34157 294.163227 464.542857 306.419633 464.542857 294.163227 464.542857 281.888782 475.697668 270.684214 489 257.337117 489 232.800021 464.53595 257.360013 464.542857 257.360013 464.542857 281.883231 440.129231 257.360013 440.108508 257.360013 451.270227 246.148506 489 208.26362 489 183.727219"></polygon>
                    <polygon id="Fill-9" fill="#000000" points="0 235.061409 0 257.342115 0 257.360077 0.00555488142 257.365604 24.5310507 257.365604 23.4749289 258.417773 0 281.773446 0 294.011219 0 306.419633 11.1965579 295.279625 12.4714032 294.011219 12.2547628 294.011219 35.7519112 270.632748 49.0864041 257.365604 24.5609082 257.365604 0 232.928745"></polygon>
                </g>
            </g>
        </g>
    </g>
</svg>