<?xml version="1.0" encoding="UTF-8"?>
<svg width="301px" height="300px" viewBox="0 0 301 300" version="1.1" xmlns="http://www.w3.org/2000/svg" xmlns:xlink="http://www.w3.org/1999/xlink">
    <title>teal-circle</title>
    <g id="Pillar-Pages" stroke="none" stroke-width="1" fill="none" fill-rule="evenodd">
        <g id="teal-circle" transform="translate(0.621359, 0.000000)" fill="#0A8E9B">
            <path d="M299.00884,134.576361 C298.502342,129.594292 297.740001,124.586293 296.737375,119.68893 C295.745122,114.850342 294.500483,110.01694 293.04149,105.320104 C291.594598,100.666485 289.897049,96.0301533 287.997247,91.5407597 C286.11646,87.0945831 283.991931,82.6847089 281.685893,78.4373311 C279.400598,74.229713 276.875019,70.0722267 274.176574,66.0755081 C271.498872,62.1133632 268.598173,58.2324665 265.548809,54.536539 C262.497716,50.8423402 259.244369,47.2639633 255.878659,43.8999432 C252.49912,40.5186363 248.919056,37.265252 245.238729,34.2262247 C241.544573,31.1802825 237.663721,28.2778213 233.70335,25.6018176 C229.718778,22.9119845 225.56134,20.3863765 221.34167,18.0924121 C217.089155,15.7828896 212.682789,13.660065 208.238392,11.7792563 C203.742136,9.87943199 199.105857,8.1818638 194.460935,6.73841223 C189.750324,5.27248776 184.91525,4.0295636 180.088818,3.04248474 C175.198426,2.04157641 170.190485,1.27749785 165.203288,0.769264608 C155.100972,-0.255845308 144.684039,-0.257573992 134.576537,0.770993293 C129.58934,1.27749785 124.583127,2.04157641 119.694464,3.04248474 C114.869761,4.0295636 110.034686,5.27248776 105.320618,6.73841223 C100.667053,8.18532117 96.0307745,9.88116067 91.5431613,11.780985 C87.09185,13.6635224 82.6820267,15.7880757 78.4381551,18.0941408 C74.2098416,20.3898338 70.0506746,22.9171706 66.0799321,25.6018176 C62.1161042,28.2778213 58.2352522,31.1802825 54.541096,34.2279533 C50.8624978,37.265252 47.2824335,40.5186363 43.9028942,43.8982145 C40.5268123,47.2743354 37.2717369,50.854441 34.2310159,54.5399964 C31.1851089,58.2324665 28.2826811,62.1133632 25.603251,66.0789655 C22.9117203,70.065312 20.3844127,74.2227982 18.0956608,78.4338737 C15.7930796,82.6726081 13.6702795,87.0824823 11.7843064,91.5407597 C9.88796137,96.0232386 8.19214142,100.657842 6.74006318,105.320104 C5.27588429,110.023854 4.03297446,114.858985 3.04417832,119.692387 C2.04328153,124.586293 1.28094045,129.594292 0.772713065,134.576361 C0.261028351,139.629305 0,144.782514 0,149.890777 C0,154.997311 0.261028351,160.148791 0.772713065,165.203464 C1.28094045,170.187262 2.04328153,175.195261 3.04417832,180.085709 C3.92061126,184.372847 5.02868525,188.647883 6.28196707,192.848587 C15.172489,195.961948 23.7138207,199.809999 31.8299008,204.335695 C31.2404262,203.058198 30.6388509,201.784157 30.0925929,200.49283 C28.4503616,196.610204 26.979268,192.592742 25.7225289,188.556263 C24.4536891,184.478296 23.3767311,180.289694 22.5210421,176.101091 C21.6532525,171.860628 20.9911739,167.518173 20.5520931,163.194733 C20.1060977,158.807331 19.8796426,154.330039 19.8796426,149.890777 C19.8796426,145.449786 20.1060977,140.972493 20.5520931,136.583363 C20.9911739,132.261652 21.6532525,127.919197 22.5210421,123.677005 C23.3767311,119.488402 24.4536891,115.2998 25.7208002,111.228748 C26.9775394,107.188812 28.4503616,103.16962 30.0925929,99.2852663 C31.7279096,95.4199277 33.5689374,91.5978063 35.565545,87.9260804 C37.5483232,84.27337 39.7402699,80.6656054 42.0756958,77.2065077 C44.4007496,73.7664255 46.9194139,70.3972194 49.5642707,67.193967 C52.2022129,63.9959006 55.0268508,60.8877259 57.9586659,57.9576056 C60.895667,55.0205707 64.0020773,52.1959002 67.1949207,49.561385 C70.4015935,46.9164977 73.7690321,44.3960756 77.2090746,42.0744523 C80.6543031,39.7459143 84.2602974,37.5539423 87.926795,35.5624978 C91.6088505,33.5624098 95.4291992,31.7213608 99.2875786,30.0894826 C103.175345,28.4455037 107.191033,26.9743931 111.224007,25.7210969 C115.308842,24.4505137 119.497396,23.3735433 123.677307,22.5178445 C127.917721,21.6517735 132.260127,20.9879587 136.585245,20.5488728 C145.363404,19.6568716 154.425064,19.660329 163.194579,20.5471441 C167.519698,20.9879587 171.862103,21.6517735 176.104246,22.5178445 C180.285886,23.3735433 184.47444,24.4505137 188.555817,25.7210969 C192.580148,26.9726644 196.599294,28.4420463 200.493975,30.0894826 C204.343711,31.7179034 208.165788,33.5589524 211.854758,35.5624978 C215.512613,37.5487563 219.120336,39.7407283 222.572479,42.0744523 C226.009064,44.3960756 229.37996,46.9164977 232.586633,49.561385 C235.779476,52.1959002 238.885886,55.0205707 241.822888,57.9576056 C244.746059,60.8773538 247.570697,63.9855285 250.219011,67.1922383 C252.862139,70.3972194 255.382532,73.7664255 257.704129,77.204779 C260.043012,80.6690628 262.234959,84.2750987 264.216008,87.9260804 C266.217802,91.6081784 268.05883,95.4302998 269.690689,99.2852663 C271.334649,103.174806 272.804014,107.190541 274.059025,111.223562 C275.324407,115.294614 276.401365,119.486673 277.26224,123.677005 C278.13003,127.919197 278.792108,132.261652 279.22946,136.583363 C279.677184,140.972493 279.901911,145.449786 279.901911,149.890777 C279.901911,154.330039 279.677184,158.807331 279.22946,163.194733 C278.792108,167.518173 278.13003,171.860628 277.26224,176.099363 C276.401365,180.291423 275.324407,184.483482 274.059025,188.556263 C272.804014,192.587555 271.334649,196.605018 269.690689,200.49283 C268.05883,204.347796 266.217802,208.169918 264.21428,211.857202 C262.23323,215.506455 260.043012,219.114219 257.705858,222.573317 C255.379075,226.018585 252.858682,229.387791 250.22074,232.5824 C247.570697,235.792567 244.746059,238.900742 241.822888,241.822219 C238.885886,244.759254 235.777747,247.583925 232.588361,250.214982 C229.37996,252.863327 226.009064,255.38202 222.575936,257.703644 C219.120336,260.037368 215.512613,262.22934 211.856487,264.215598 C208.165788,266.219144 204.343711,268.060193 200.495703,269.688613 C196.599294,271.33605 192.580148,272.80716 188.55236,274.060457 C184.483084,275.325854 180.294529,276.404553 176.104246,277.260252 C171.855189,278.12978 167.512783,278.793595 163.196308,279.230952 C154.423335,280.122953 145.363404,280.122953 136.585245,279.230952 C132.26877,278.793595 127.926365,278.12978 123.677307,277.260252 C119.490481,276.404553 115.300199,275.325854 111.225736,274.058728 C107.191033,272.805432 103.175345,271.334321 99.2875786,269.690342 C95.4291992,268.058464 91.6088505,266.215686 87.926795,264.217327 C84.2602974,262.224154 80.6543031,260.03391 77.2073459,257.703644 C73.7690321,255.38202 70.4015935,252.863327 67.1949207,250.216711 C66.2078533,249.402501 65.2467157,248.538158 64.2769349,247.687646 L50.18659,261.778153 C51.6231102,263.059108 53.0665451,264.333149 54.541096,265.550143 C58.2352522,268.599542 62.1161042,271.502003 66.0782034,274.176278 C70.0506746,276.862654 74.2098416,279.388262 78.4381551,281.685684 C82.6820267,283.991749 87.09185,286.116302 91.5431613,287.99884 C96.0307745,289.896935 100.667053,291.594504 105.320618,293.041412 C110.024314,294.50388 114.859389,295.748532 119.694464,296.73734 C124.591771,297.739977 129.601441,298.504056 134.578266,299.008831 C139.629424,299.522251 144.782573,299.781553 149.890777,299.781553 C155.000709,299.781553 160.15213,299.522251 165.203288,299.008831 C170.180113,298.504056 175.188054,297.739977 180.088818,296.73734 C184.923893,295.748532 189.760696,294.50388 194.457478,293.041412 C199.105857,291.597961 203.742136,289.900393 208.240121,287.99884 C212.682789,286.11976 217.089155,283.995206 221.343398,281.685684 C225.56134,279.393448 229.718778,276.86784 233.705079,274.176278 C237.663721,271.500275 241.544573,268.599542 245.240457,265.550143 C248.917327,262.516301 252.495663,259.262917 255.878659,255.879882 C259.246098,252.514133 262.499444,248.935756 265.550537,245.239828 C268.592987,241.554273 271.493686,237.673376 274.178302,233.702588 C276.87329,229.711055 279.398869,225.55184 281.684164,221.344222 C283.991931,217.095116 286.11646,212.685242 287.997247,208.237336 C289.895321,203.749671 291.592869,199.11334 293.04149,194.459721 C294.502212,189.761156 295.745122,184.926026 296.737375,180.087438 C297.740001,175.195261 298.502342,170.187262 299.00884,165.203464 C299.520525,160.148791 299.781553,154.997311 299.781553,149.890777 C299.781553,144.782514 299.520525,139.629305 299.00884,134.576361" id="Fill-1"></path>
        </g>
    </g>
</svg>