<svg xmlns="http://www.w3.org/2000/svg" viewBox="0 0 89.66 25.5"><defs><style>.cls-1{fill:#fff;fill-rule:evenodd;}</style></defs><g id="Layer_2" data-name="Layer 2"><g id="Layer_1-2" data-name="Layer 1"><polygon class="cls-1" points="78.09 0 69.04 18.54 72.69 18.54 74.01 15.72 82.27 15.72 81.28 13.27 75.16 13.27 79.35 4.22 86.01 18.54 89.66 18.54 80.61 0 78.09 0"/><polygon class="cls-1" points="9.05 0 0 18.54 3.65 18.54 4.97 15.72 13.22 15.72 12.23 13.27 6.12 13.27 10.31 4.22 16.97 18.54 20.61 18.54 11.57 0 9.05 0"/><polygon class="cls-1" points="43.44 0 34.39 18.54 38.04 18.54 39.36 15.72 47.62 15.72 46.63 13.27 40.51 13.27 44.7 4.22 51.36 18.54 55.01 18.54 45.96 0 43.44 0"/><polygon class="cls-1" points="34.17 0 27.51 14.58 20.85 0 17.21 0 26.25 18.54 26.4 18.54 28.62 18.54 28.77 18.54 37.82 0 34.17 0"/><polygon class="cls-1" points="68.9 0 61.96 14.86 55.57 0 51.93 0 60.15 18.54 56.57 25.5 60.06 25.5 72.54 0 68.9 0"/></g></g></svg>