<svg xmlns="http://www.w3.org/2000/svg" viewBox="0 0 354.85 43.02"><defs><style>.cls-1,.cls-2{fill:#fff;}.cls-2{fill-rule:evenodd;}</style></defs><g id="Layer_2" data-name="Layer 2"><g id="Layer_1-2" data-name="Layer 1"><path class="cls-1" d="M112.84,10.55c0-5.72,4.57-10.36,10.83-10.36a11.79,11.79,0,0,1,8.42,3.22l-1.16,1.07a10.37,10.37,0,0,0-7.26-2.93,8.89,8.89,0,0,0-9.12,8.93,8.9,8.9,0,0,0,9.12,9,10.48,10.48,0,0,0,7.41-3.06l1.08,1a11.82,11.82,0,0,1-8.57,3.51C117.39,20.83,112.83,16.33,112.84,10.55Z"/><polygon class="cls-1" points="135.78 0.56 137.4 0.56 137.4 19.13 150.06 19.13 150.06 20.49 135.77 20.49 135.78 0.56"/><path class="cls-1" d="M171.94,10.56a9.2,9.2,0,1,0-9.2,8.93A8.91,8.91,0,0,0,171.94,10.56Zm-20,0c0-5.49,4.33-10.35,10.9-10.35S173.64,5,173.64,10.49v.07c0,5.42-4.33,10.29-10.9,10.27S151.93,16.05,151.93,10.56Z"/><path class="cls-1" d="M178,12.21V.58h1.61V12.07c0,4.71,2.78,7.43,7.35,7.43,4.4,0,7.19-2.43,7.19-7.28V.59h1.61V12.08c0,5.72-3.63,8.78-8.8,8.78S178,17.78,178,12.21Z"/><path class="cls-1" d="M208.09,19.14c6,0,9.82-3.77,9.82-8.57v-.06c0-4.72-3.78-8.57-9.8-8.57h-5.56v17.2ZM200.92.58h7.17c6.8,0,11.51,4.28,11.51,9.93s-4.71,10-11.51,10h-7.17Z"/><path class="cls-1" d="M251.83,10.59a9.2,9.2,0,1,0-9.2,8.93A8.91,8.91,0,0,0,251.83,10.59Zm-20,0c0-5.49,4.33-10.35,10.9-10.35S253.52,5,253.52,10.52v.07c0,5.42-4.33,10.29-10.9,10.27S231.81,16.08,231.81,10.59Z"/><polygon class="cls-1" points="258.16 0.59 273.38 0.59 273.38 2.02 259.77 2.02 259.77 10.16 271.98 10.16 271.98 11.52 259.77 11.52 259.77 20.52 258.16 20.52 258.16 0.59"/><polygon class="cls-1" points="277.63 0.6 292.85 0.6 292.85 2.03 279.25 2.03 279.25 10.18 291.45 10.18 291.45 11.54 279.25 11.54 279.25 20.53 277.63 20.53 277.63 0.6"/><rect class="cls-1" x="297.33" y="0.6" width="1.62" height="20"/><path class="cls-1" d="M303.82,10.6c0-5.71,4.57-10.35,10.83-10.35a11.83,11.83,0,0,1,8.42,3.21l-1.16,1.07a10.28,10.28,0,0,0-7.26-2.92,8.85,8.85,0,0,0-9.12,8.92,8.91,8.91,0,0,0,9.12,9,10.48,10.48,0,0,0,7.41-3.06l1.08,1a11.85,11.85,0,0,1-8.57,3.5C308.37,20.89,303.82,16.38,303.82,10.6Z"/><polygon class="cls-1" points="326.76 0.62 342.14 0.62 342.14 2.05 328.39 2.05 328.39 9.9 340.76 9.9 340.76 11.26 328.39 11.26 328.39 19.25 342.31 19.25 342.31 20.54 326.78 20.54 326.76 0.62"/><polygon class="cls-1" points="90.58 14.86 97.97 14.86 99.14 17.54 89.17 17.54 87.6 20.65 83.21 20.65 94.12 0.06 97.18 0.06 108 20.65 103.69 20.65 95.61 4.78 90.58 14.86"/><polygon class="cls-1" points="7.37 14.85 14.76 14.85 15.93 17.52 5.96 17.52 4.39 20.64 0 20.64 10.91 0.04 13.97 0.04 24.8 20.64 20.41 20.64 12.4 4.75 7.37 14.85"/><polygon class="cls-1" points="48.82 14.85 56.2 14.85 57.38 17.52 47.41 17.52 45.84 20.65 41.45 20.65 52.36 0.06 55.42 0.06 66.32 20.65 61.84 20.65 53.85 4.76 48.82 14.85"/><polygon class="cls-1" points="20.72 0.04 31.62 20.64 31.78 20.64 34.45 20.64 34.69 20.64 45.6 0.04 41.21 0.04 33.12 16.3 25.11 0.06 20.72 0.04"/><polygon class="cls-1" points="72.37 28.43 87.45 0.06 83.06 0.06 74.65 16.59 66.96 0.06 62.57 0.06 72.46 20.65 68.14 28.41 72.37 28.43"/><path class="cls-1" d="M242.89,38.75a2.23,2.23,0,0,0,1.7-.64,2.68,2.68,0,0,0,.61-1.87v-.75a2.62,2.62,0,0,0-.6-1.86,2.16,2.16,0,0,0-1.7-.66,2.24,2.24,0,0,0-1.69.65,2.32,2.32,0,0,0-.62,1.71v1.06a2.34,2.34,0,0,0,.62,1.72A2.21,2.21,0,0,0,242.89,38.75Zm.16,1.06a2.85,2.85,0,0,1-1.43-.33,3.35,3.35,0,0,1-1-.92h-.06l-.18,1.07H239.3V28.5h1.3v3.57a6,6,0,0,1-.1,1l.06,0a3.15,3.15,0,0,1,1.05-.88,3.23,3.23,0,0,1,1.53-.34,3.1,3.1,0,0,1,2.47,1,4.22,4.22,0,0,1,.91,2.9,5.52,5.52,0,0,1-.24,1.69,3.67,3.67,0,0,1-.7,1.24,3,3,0,0,1-1.08.76A4.33,4.33,0,0,1,243.05,39.81Z"/><path class="cls-1" d="M248.43,43l-.53,0-.48-.07v-1a2.61,2.61,0,0,0,.49.07c.13,0,.3,0,.46,0a1.41,1.41,0,0,0,1-.38,3,3,0,0,0,.71-1.11l.37-.84-3.14-7.59h1.35l2.06,5.21c.07.17.13.35.19.53a3.23,3.23,0,0,1,.14.51h.1a3.18,3.18,0,0,1,.13-.51,4.81,4.81,0,0,1,.2-.53l2-5.21h1.35l-3.71,8.79a4,4,0,0,1-1.11,1.59A2.48,2.48,0,0,1,248.43,43Z"/><rect class="cls-1" x="340.33" y="28.1" width="1.96" height="11.56"/><path class="cls-2" d="M335,38.45c-.75,0-1.23-.34-1.23-.92s.51-1,1.43-1h1.7l0,.11A1.73,1.73,0,0,1,335,38.45Zm.4-6.48c-1.81,0-3.2.81-3.44,2.47h1.93c.13-.62.64-1,1.51-1a1.31,1.31,0,0,1,1.5,1.4v.38h-2c-1.83,0-3.16.76-3.16,2.28s1.1,2.32,2.68,2.32A2.61,2.61,0,0,0,337,38.56H337v1.07h1.85V34.88C338.88,33.07,337.87,32,335.42,32Z"/><path class="cls-2" d="M328.32,39.65V35.76a1.82,1.82,0,0,1,2-1.89h.77V32.15h-.8a2.1,2.1,0,0,0-2,1.06h-.08V32.15h-1.84v7.5Z"/><path class="cls-2" d="M325.13,38v1.67H323.8c-1.87,0-2.91-.81-2.91-2.54V33.63h-1.33V32.15h1.33v-2h2v2h2.27v1.48h-2.27v3.26A1,1,0,0,0,324,38Z"/><path class="cls-2" d="M313.15,39.65V35.31A1.69,1.69,0,0,1,315,33.55a1.57,1.57,0,0,1,1.75,1.73v4.37h2V35a2.72,2.72,0,0,0-3-3,2.92,2.92,0,0,0-2.6,1.22H313v-1h-1.84v7.5Z"/><path class="cls-2" d="M306,33.47c1.27,0,2,.67,2.09,1.6h-4.18A1.88,1.88,0,0,1,306,33.47Zm0,4.87a1.94,1.94,0,0,1-2.09-2h6v-.59A3.63,3.63,0,0,0,306,32a3.77,3.77,0,0,0-4,3.94,3.71,3.71,0,0,0,4,3.94c2,0,3.36-1,3.76-2.47h-1.89C307.6,37.93,307.08,38.34,306,38.34Z"/><path class="cls-2" d="M296.09,39.84c2.93,0,4.57-1.5,5-3.72h-2a2.75,2.75,0,0,1-3,2c-1.94,0-3.48-1.23-3.48-3.9s1.56-3.9,3.48-3.9,2.72.93,3,1.93h2c-.32-2.22-1.94-3.68-4.95-3.68a5.29,5.29,0,0,0-5.59,5.66A5.25,5.25,0,0,0,296.09,39.84Z"/><path class="cls-2" d="M285.13,38A2,2,0,0,1,283,35.8a2,2,0,0,1,2.12-2.21,2,2,0,0,1,2.11,2.22A2,2,0,0,1,285.13,38Zm2.2-5.88v1h-.09a3,3,0,0,0-2.64-1.22,3.58,3.58,0,0,0-3.6,3.85,3.59,3.59,0,0,0,3.6,3.86,2.82,2.82,0,0,0,2.55-1.27h.09V40c0,.84-.5,1.24-1.33,1.24h-4v1.62h3.93c2.18,0,3.34-1.13,3.34-3v-7.7Z"/><path class="cls-2" d="M274.22,39.63V35.29a1.69,1.69,0,0,1,1.85-1.75,1.57,1.57,0,0,1,1.75,1.73v4.36h2V35a2.72,2.72,0,0,0-3-3,3,3,0,0,0-2.61,1.22h-.08v-1h-1.82v7.5Z"/><rect class="cls-1" x="268.66" y="32.13" width="1.96" height="7.5"/><path class="cls-2" d="M263.2,33.6H261V30.39h2.22c1.1,0,1.94.43,1.94,1.61S264.3,33.6,263.2,33.6Zm2.05.85v-.06a2.46,2.46,0,0,0,2-2.72c0-1.72-1.38-3-3.94-3H259V39.63h2V35.29h2.46c1.15,0,1.72.54,1.72,1.6v2.76h2V36.89A2.16,2.16,0,0,0,265.25,34.45Z"/><path class="cls-2" d="M269.64,30.93a1.34,1.34,0,0,0,.72-.21,1.24,1.24,0,0,0,.48-.54,1.19,1.19,0,0,0,.07-.7,1.14,1.14,0,0,0-.35-.61,1.29,1.29,0,0,0-.67-.33,1.41,1.41,0,0,0-.76.06,1.42,1.42,0,0,0-.58.44,1.17,1.17,0,0,0-.22.68,1.29,1.29,0,0,0,.21.67,1.27,1.27,0,0,0,.58.44A1.41,1.41,0,0,0,269.64,30.93Z"/><path class="cls-2" d="M268.15,26.39a4,4,0,0,0-1.26.79l.92.85a2.53,2.53,0,0,1,.85-.52,3,3,0,0,1,1-.2,2.85,2.85,0,0,1,1,.18,3.12,3.12,0,0,1,.84.52l.92-.85a4.12,4.12,0,0,0-2-1A4.47,4.47,0,0,0,268.15,26.39Z"/><path class="cls-1" d="M350.34,4.4c.68,0,1.07-.34,1.07-.82v0c0-.48-.42-.8-1.07-.77h-1.29V4.4Zm-2.06-2.26h2.15c1,0,1.8.48,1.8,1.38v0A1.43,1.43,0,0,1,351,4.88l1.35,1.73h-1L350.21,5h-1.16V6.61h-.77Zm6,2.32v0a4.25,4.25,0,0,0-8.48,0v0a4.25,4.25,0,0,0,8.48,0Zm-9,0v0a4.8,4.8,0,0,1,9.58,0v0a4.65,4.65,0,0,1-4.79,4.47A4.6,4.6,0,0,1,345.27,4.49Z"/></g></g></svg>