<svg xmlns="http://www.w3.org/2000/svg" viewBox="0 0 257.76 45.33"><defs><style>.cls-1,.cls-2{fill:#fff;}.cls-2{fill-rule:evenodd;}</style></defs><g id="Layer_2" data-name="Layer 2"><g id="Layer_1-2" data-name="Layer 1"><path class="cls-1" d="M130,11.24v-.06c0-5-3.62-9-8.58-9s-8.52,4-8.52,9v0c0,5,3.61,9,8.58,9S130,16.19,130,11.24Zm-18.66,0v-.06A10.12,10.12,0,0,1,121.45.79,10,10,0,0,1,131.52,11.1v.05a10.11,10.11,0,0,1-10.13,10.39A10,10,0,0,1,111.31,11.24Z"/><path class="cls-1" d="M136.12,6.62h1.4V9.34a5.74,5.74,0,0,1,5.28-3.06c3.68,0,5.88,2.52,5.88,6v8.93h-1.4V12.51c0-3-1.69-5-4.65-5a4.94,4.94,0,0,0-1.93.36,4.8,4.8,0,0,0-1.64,1.07,5,5,0,0,0-1.52,3.52v8.77h-1.42Z"/><path class="cls-1" d="M164.64,13.2c-.2-2.94-1.9-5.68-5.25-5.68-2.9,0-5.15,2.44-5.39,5.68Zm-12.14.74v-.06c0-4.25,3-7.63,6.95-7.63s6.71,3.32,6.71,7.66a5.42,5.42,0,0,1,0,.57H154a5.8,5.8,0,0,0,5.74,5.77,6.6,6.6,0,0,0,2.76-.6,6.45,6.45,0,0,0,2.25-1.7l1,.86a7.71,7.71,0,0,1-6.07,2.76A7.27,7.27,0,0,1,152.5,13.94Z"/><path class="cls-1" d="M169.64,11.24v-.06a10.09,10.09,0,0,1,10-10.39A10.59,10.59,0,0,1,187.49,4L186.43,5.1a9.4,9.4,0,0,0-3.08-2.18,9.08,9.08,0,0,0-3.7-.76c-4.82,0-8.46,3.93-8.46,9v.06c0,5.08,3.68,9,8.49,9a9.2,9.2,0,0,0,6.92-3.12l1,1a10.61,10.61,0,0,1-8,3.5A10,10,0,0,1,169.64,11.24Z"/><rect class="cls-1" x="191.15" y="0.27" width="1.41" height="20.96"/><path class="cls-1" d="M210.19,14v-.07a6.11,6.11,0,0,0-1.64-4.4,6.18,6.18,0,0,0-4.28-1.95h-.1a6,6,0,0,0-6,6.29v.06a6.13,6.13,0,0,0,5.89,6.34h.11a6,6,0,0,0,6-6.27Zm-13.51,0v-.07a7.54,7.54,0,0,1,7.45-7.66h.1a7.4,7.4,0,0,1,2.86.56,7.48,7.48,0,0,1,4.63,6.91v.19a7.55,7.55,0,0,1-4.57,7,7.72,7.72,0,0,1-2.89.62h-.09a7.55,7.55,0,0,1-5.29-2.18A7.53,7.53,0,0,1,197.25,17a7.34,7.34,0,0,1-.57-2.86Z"/><path class="cls-1" d="M215.5,15.54V6.62h1.4v8.66c0,3,1.7,5,4.65,5a5,5,0,0,0,5.07-4.94V6.62H228V21.23h-1.4V18.5a5.73,5.73,0,0,1-5.29,3.07C217.65,21.57,215.5,19,215.5,15.54Z"/><path class="cls-1" d="M245.37,14v-.06a6.1,6.1,0,0,0-5.92-6.28h0c-3.18,0-5.73,2.32-5.73,6.25V14c0,3.85,2.67,6.31,5.73,6.31a6.08,6.08,0,0,0,4.29-1.92,6.32,6.32,0,0,0,1.27-2,6.11,6.11,0,0,0,.4-2.36Zm-13.24,0v-.07a7.32,7.32,0,0,1,7.12-7.66,7,7,0,0,1,6,3.5V.27h1.4v21h-1.4V18a6.76,6.76,0,0,1-8.84,3,7.23,7.23,0,0,1-4.31-7Z"/><polygon class="cls-2" points="86.02 15.19 93.02 15.19 94.16 18 84.7 18 83.19 21.22 79.01 21.22 89.37 0 92.26 0 102.61 21.22 98.44 21.22 90.81 4.83 86.02 15.19"/><polygon class="cls-2" points="7 15.35 14 15.35 15.13 18.15 5.68 18.15 4.17 21.38 0 21.38 10.35 0.15 13.24 0.15 23.59 21.38 19.42 21.38 11.79 4.99 7 15.35"/><polygon class="cls-2" points="46.36 15.35 53.37 15.35 54.5 18.15 45.04 18.15 43.54 21.38 39.36 21.38 49.72 0.15 52.6 0.15 62.95 21.38 58.78 21.38 51.16 4.99 46.36 15.35"/><polygon class="cls-2" points="19.7 0.09 30.04 21.31 30.21 21.31 32.76 21.31 32.93 21.31 43.28 0.09 39.11 0.09 31.48 16.78 23.86 0.09 19.7 0.09"/><polygon class="cls-2" points="68.74 29.27 83.02 0.09 78.85 0.09 70.91 17.09 63.6 0.09 59.43 0.09 68.84 21.31 64.74 29.27 68.74 29.27"/><path class="cls-1" d="M253.66.29h.49l1.57,2.4L257.29.28h.47v4h-.46V1.09l-1.56,2.33h-.06l-1.56-2.33V4.31h-.46ZM251,.74h-1.31V.28h3.09V.74h-1.31V4.31H251Z"/><path class="cls-1" d="M110.42,38.94a6.25,6.25,0,0,1,6.06-6.4h.19a6.45,6.45,0,0,1,4.83,2l-1,1a5.42,5.42,0,0,0-3.88-1.69,4.76,4.76,0,0,0-1.86.38,4.89,4.89,0,0,0-2.61,2.65,4.77,4.77,0,0,0-.35,1.86v.22A4.87,4.87,0,0,0,116.47,44h.15a5.33,5.33,0,0,0,2.22-.47,5.46,5.46,0,0,0,1.83-1.33l.92.89a6.45,6.45,0,0,1-2.23,1.65,6.53,6.53,0,0,1-2.72.56,6.14,6.14,0,0,1-2.36-.44,6,6,0,0,1-2-1.32,6.14,6.14,0,0,1-1.36-2,5.93,5.93,0,0,1-.49-2.35Z"/><path class="cls-1" d="M123.06,38.94a6.14,6.14,0,0,1,.42-2.4,6.23,6.23,0,0,1,1.29-2.06,6.29,6.29,0,0,1,4.36-1.94h.19a6.45,6.45,0,0,1,4.82,2l-1,1a5.38,5.38,0,0,0-3.88-1.69,4.87,4.87,0,0,0-1.85.39,4.67,4.67,0,0,0-1.56,1.07,4.77,4.77,0,0,0-1,1.58,4.92,4.92,0,0,0-.35,1.86v.21a4.81,4.81,0,0,0,.29,1.88,4.81,4.81,0,0,0,2.51,2.75,4.76,4.76,0,0,0,1.85.46h.14a5.36,5.36,0,0,0,2.19-.47,5.28,5.28,0,0,0,1.8-1.31l.92.9A6.62,6.62,0,0,1,132,44.77a6.34,6.34,0,0,1-2.72.55,6.16,6.16,0,0,1-5.71-3.78,6.09,6.09,0,0,1-.48-2.35A2.26,2.26,0,0,0,123.06,38.94Z"/><path class="cls-1" d="M142.67,41.7v-.82A9.7,9.7,0,0,0,140,40.5c-1.69,0-2.66.73-2.66,1.83s1.06,1.82,2.3,1.82c1.67,0,3-1,3-2.42Zm-6.72.73c0-2,1.59-3,3.9-3a10.05,10.05,0,0,1,2.79.39v-.28c0-1.62-1-2.47-2.7-2.47a6.2,6.2,0,0,0-2.77.65l-.41-1.11a7.53,7.53,0,0,1,3.32-.78,4,4,0,0,1,2.95,1,3.71,3.71,0,0,1,.95,2.68v5.59h-1.34V43.73a4.05,4.05,0,0,1-1.46,1.17,4,4,0,0,1-1.83.38C137.65,45.28,136,44.31,136,42.43Z"/><path class="cls-1" d="M152.82,41.7v-.82a9.68,9.68,0,0,0-2.67-.38c-1.69,0-2.67.73-2.67,1.83s1.06,1.82,2.3,1.82c1.68,0,3-1,3-2.42Zm-6.72.73c0-2,1.59-3,3.91-3a10.16,10.16,0,0,1,2.79.39v-.28c0-1.62-1-2.47-2.7-2.47a6.24,6.24,0,0,0-2.78.65l-.4-1.11a7.5,7.5,0,0,1,3.32-.78,4,4,0,0,1,2.94,1,3.75,3.75,0,0,1,.75,1.24,3.9,3.9,0,0,1,.21,1.44v5.59h-1.35V43.73a4,4,0,0,1-3.28,1.55C147.8,45.28,146.1,44.31,146.1,42.43Z"/><path class="cls-1" d="M156.26,43.29l.87-1a5.81,5.81,0,0,0,1.94,1.3,6,6,0,0,0,2.3.45c1.65,0,2.75-.89,2.75-2.1v0c0-1.14-.62-1.8-3.21-2.34-2.84-.62-4.15-1.54-4.15-3.57s1.71-3.38,4.06-3.38a6.53,6.53,0,0,1,4.35,1.52l-.81,1.08a5.44,5.44,0,0,0-3.57-1.33c-1.61,0-2.64.88-2.64,2s.64,1.82,3.36,2.4,4,1.6,4,3.49c0,2.12-1.77,3.51-4.22,3.51A7.32,7.32,0,0,1,156.26,43.29Z"/></g></g></svg>