<svg width="1382" height="363" viewBox="0 0 1382 363" fill="none" xmlns="http://www.w3.org/2000/svg">
<g clip-path="url(#clip0)">
<g style="mix-blend-mode:hard-light" opacity="0.1">
<path d="M269.173 -63.1325L254.48 -76.9814L-28.8434 190.074L-28.9807 190.204V217.902L268.78 -62.7622L269.173 -63.1325Z" fill="white"/>
<path d="M239.297 -91.2935L224.604 -105.161L-28.8434 133.753L-28.9807 133.882V161.58L238.904 -90.9232L239.297 -91.2935Z" fill="white"/>
<path d="M209.401 -119.472L194.727 -133.321L-28.8434 77.4314L-28.9807 77.5611V105.241L209.008 -119.083L209.401 -119.472Z" fill="white"/>
<path d="M179.525 -147.634L123.009 -200.919H91.5635L149.119 -146.634L-28.8238 21.1089L-28.9807 21.2385V48.8995L179.132 -147.264L179.525 -147.634Z" fill="white"/>
<path d="M803.491 132.845V132.864L719.375 212.162L718.963 212.532L763.532 254.542L779.284 239.712L749.408 211.551L803.491 160.543L1071.4 -91.9786L1071.79 -92.3674L1057.09 -106.216L803.648 132.697L803.491 132.845Z" fill="white"/>
<path d="M747.153 270.002L687.401 213.662L803.335 104.369L803.492 104.221V104.203L1041.5 -120.14L1041.89 -120.528L1027.22 -134.377L803.649 76.3752L803.492 76.5233V76.5419L657.368 214.291L656.956 214.661L731.401 284.832L747.153 270.002Z" fill="white"/>
<path d="M254.479 314.864L-9.36499 563.572H20.0207L269.172 328.694L254.479 314.864Z" fill="white"/>
<path d="M239.297 300.551L224.604 286.702L-28.8434 525.598L-28.9807 525.727V553.425L238.904 300.922L239.297 300.551Z" fill="white"/>
<path d="M209.401 272.39L194.727 258.523L-28.8434 469.275L-28.9807 469.405V497.084L209.008 272.761L209.401 272.39Z" fill="white"/>
<path d="M179.544 244.212L75.6152 146.25L75.2229 145.88L59.4707 160.71L149.119 245.211L-28.8434 412.955L-28.9807 413.084V440.764L179.132 244.582L179.544 244.212Z" fill="white"/>
<path d="M117.536 246.322L43.4832 176.522L43.0909 176.151L27.3387 191L87.1106 247.322L-28.8434 356.614L-28.9807 356.744V384.442L117.144 246.711L117.536 246.322Z" fill="white"/>
<path d="M55.5278 248.451L10.9588 206.442L-4.77377 221.272L25.1024 249.433L-28.9807 300.403V328.101L55.1355 248.822L55.5278 248.451Z" fill="white"/>
<path d="M1086.97 313.808L822.009 563.572H851.395L1101.66 327.639L1086.97 313.808Z" fill="white"/>
<path d="M803.492 496.048L1041.5 271.706L1041.89 271.317L1027.22 257.468L803.649 468.22L803.492 468.368V468.387L702.525 563.571H731.891L803.492 496.066V496.048Z" fill="white"/>
<path d="M803.491 439.727L1011.62 243.526L1012.02 243.156L908.107 145.194L907.695 144.824L891.962 159.654L981.61 244.156L803.648 411.899L803.491 412.047L642.772 563.572H672.138L803.334 439.875L803.491 439.727Z" fill="white"/>
<path d="M803.492 383.405L949.636 245.637L950.028 245.267L875.975 175.467L875.583 175.096L859.831 189.945L919.603 246.267L803.648 355.559L803.492 355.726L583 563.572H612.367L803.335 383.553L803.492 383.405Z" fill="white"/>
<path d="M803.492 327.084V327.065L887.628 247.767L888.02 247.397L843.451 205.387L827.718 220.217L857.594 248.378L803.492 299.386L535.607 551.907L535.195 552.296L547.161 563.572H552.634L803.335 327.232L803.492 327.084Z" fill="white"/>
<path d="M803.49 243.064L505.729 523.746L505.317 524.135L520.01 537.984L803.333 270.91L803.49 270.762V270.743L826.01 249.525L811.317 235.676L803.49 243.064Z" fill="white"/>
<path d="M298.931 357.021L299.323 356.632L283.591 341.802L179.662 439.763L179.269 440.133L310.21 563.571H339.576L209.695 441.133L298.931 357.021Z" fill="white"/>
<path d="M670.175 342.062L684.868 328.213L380.379 41.18L379.986 40.8097L365.293 54.6587L669.763 341.692L670.175 342.062Z" fill="white"/>
<path d="M639.908 369.834L640.301 370.222L654.994 356.373L333.712 53.5287L363.588 25.3493L347.856 10.519L303.287 52.5289L639.908 369.834Z" fill="white"/>
<path d="M241.278 50.3994L610.012 398.013L610.424 398.383L625.097 384.534L271.703 51.3992L331.063 -4.55216L331.456 -4.92246L315.723 -19.7712L241.67 50.0292L241.278 50.3994Z" fill="white"/>
<path d="M595.221 412.695L209.695 49.2884L298.931 -34.8424L299.343 -35.2127L283.591 -50.043L179.662 47.9183L179.269 48.2886L564.795 411.714L475.559 495.826L475.167 496.196L490.899 511.045L594.828 413.084L595.221 412.695Z" fill="white"/>
<path d="M533.213 410.585L164.479 62.9901L164.086 62.6013L149.394 76.4503L502.787 409.585L443.427 465.555L443.035 465.925L458.787 480.756L532.82 410.955L533.213 410.585Z" fill="white"/>
<path d="M134.603 91.1501L134.211 90.7798L119.518 104.61L440.799 407.474L410.904 435.635L426.656 450.465L471.225 408.455L134.603 91.1501Z" fill="white"/>
<path d="M104.333 118.941L89.6406 132.79L394.111 419.804L394.522 420.193L409.215 406.326L104.726 119.311L104.333 118.941Z" fill="white"/>
<path d="M625.118 -7.31157L419.869 -200.79L419.731 -200.919H390.346L610.405 6.51889L625.118 -7.31157Z" fill="white"/>
<path d="M475.559 103.962L475.147 104.351L490.9 119.181L594.829 21.2196L595.221 20.8494L360.115 -200.79L359.978 -200.919H330.592L564.795 19.8496L475.559 103.962Z" fill="white"/>
<path d="M443.036 74.0793L458.788 88.9096L532.821 19.0907L533.233 18.7204L300.344 -200.79L300.207 -200.919H270.841L502.808 17.7391L443.036 74.0793Z" fill="white"/>
<path d="M410.904 43.7891L426.656 58.6194L471.225 16.6095L240.592 -200.79L240.455 -200.919H211.089L440.8 15.6283L410.904 43.7891Z" fill="white"/>
<path d="M409.216 14.4802L180.839 -200.79L180.721 -200.919H151.316L394.523 28.3477L409.216 14.4802Z" fill="white"/>
<path d="M803.648 189.019L803.491 189.185L780.971 210.403L795.664 224.252L803.491 216.883V216.865L1101.27 -63.8184L1101.66 -64.1887L1086.97 -78.0563L803.648 189.019Z" fill="white"/>
<path d="M803.648 20.0532L803.491 20.2013L595.359 216.401L594.966 216.772L698.895 314.733L699.288 315.122L715.02 300.273L625.392 215.772L803.334 48.0289L803.491 47.8808V47.8623L1011.62 -148.319L1012.02 -148.69L956.619 -200.919H925.173L981.61 -147.69L803.648 20.0532Z" fill="white"/>
<path d="M803.649 -36.287L803.492 -36.1389V-36.1204L565.483 188.222L565.091 188.611L579.764 202.46L803.335 -8.29283L803.492 -8.44094V-8.45945L949.636 -146.209L950.028 -146.579L892.394 -200.919H860.89L919.603 -145.579L803.649 -36.287Z" fill="white"/>
<path d="M803.492 -92.4786V-92.4601L535.607 160.062L535.195 160.451L549.888 174.281L803.335 -64.614L803.492 -64.7806L887.628 -144.079L888.02 -144.449L843.451 -186.459L827.718 -171.629L857.594 -143.468L803.492 -92.4786Z" fill="white"/>
<path d="M803.333 -120.936L803.49 -121.102L826.01 -142.32L811.317 -156.169L803.49 -148.8V-148.782L505.729 131.9L505.317 132.271L520.01 146.12L803.333 -120.936Z" fill="white"/>
<path d="M1367.69 159.377L1382.38 173.226L1411 146.268V118.551L1368.1 159.006L1367.69 159.377Z" fill="white"/>
<path d="M1337.81 131.216L1352.5 145.065L1411 89.9285V62.2305L1338.22 130.846L1337.81 131.216Z" fill="white"/>
<path d="M803.492 552.406L1071.4 299.866L1071.79 299.496L1057.1 285.647L803.649 524.542L803.492 524.708L762.277 563.571H791.643L803.492 552.406Z" fill="white"/>
<path d="M1131.42 355.966L1131.81 355.577L1116.08 340.747L1012.15 438.708L1011.76 439.079L1143.82 563.571H1173.19L1042.19 440.078L1131.42 355.966Z" fill="white"/>
<path d="M1212.48 39.7531L1197.78 53.6021L1411 254.598V226.9L1212.87 40.1233L1212.48 39.7531Z" fill="white"/>
<path d="M1196.08 24.294L1180.35 9.46375L1135.78 51.4736L1411 310.92V283.222L1166.2 52.4548L1196.08 24.294Z" fill="white"/>
<path d="M1163.55 -5.60651L1163.95 -5.99531L1148.21 -20.8256L1074.16 48.9747L1073.77 49.345L1411 367.242V339.562L1104.19 50.3448L1163.55 -5.60651Z" fill="white"/>
<path d="M1131.42 -35.8971L1131.83 -36.2674L1116.08 -51.1162L1012.15 46.8635L1011.76 47.2338L1397.29 410.658L1308.05 494.771L1307.66 495.141L1323.39 509.99L1411 427.396V395.884L1042.19 48.2336L1131.42 -35.8971Z" fill="white"/>
<path d="M996.578 61.5457L981.885 75.3946L1335.28 408.529L1275.92 464.48L1275.53 464.869L1291.26 479.7L1365.31 409.899L1365.7 409.529L996.97 61.9344L996.578 61.5457Z" fill="white"/>
<path d="M967.094 90.0954L966.702 89.7251L952.009 103.556L1273.27 406.419L1243.39 434.579L1259.15 449.41L1303.72 407.4L967.094 90.0954Z" fill="white"/>
<path d="M936.825 117.867L922.132 131.735L1226.6 418.749L1227.01 419.12L1241.71 405.271L937.217 118.256L936.825 117.867Z" fill="white"/>
<path d="M1308.05 102.906L1307.64 103.276L1323.39 118.125L1411 35.5496V4.01917L1193.59 -200.92H1164.2L1397.29 18.7939L1308.05 102.906Z" fill="white"/>
<path d="M1275.53 73.0236L1291.28 87.8538L1365.31 18.035L1365.72 17.6647L1133.82 -200.92H1104.45L1335.28 16.6834L1275.53 73.0236Z" fill="white"/>
<path d="M1243.39 42.7338L1259.15 57.5641L1303.72 15.5542L1074.06 -200.92H1044.7L1273.29 14.5544L1243.39 42.7338Z" fill="white"/>
<path d="M1241.71 13.4249L1014.33 -200.92H984.944L1227.01 27.2738L1241.71 13.4249Z" fill="white"/>
</g>
</g>
<defs>
<clipPath id="clip0">
<rect width="1382" height="363" fill="white"/>
</clipPath>
</defs>
</svg>
