<svg width="581" height="427" viewBox="0 0 581 427" fill="none" xmlns="http://www.w3.org/2000/svg">
<mask id="mask0" style="mask-type:alpha" maskUnits="userSpaceOnUse" x="0" y="0" width="581" height="427">
<rect x="0.355957" y="0.0126953" width="580" height="426" fill="#DA291C"/>
</mask>
<g mask="url(#mask0)">
<path d="M59.515 77.3332L51.4745 69.6595L-103.571 217.635L-103.647 217.706V233.054L59.3003 77.5384L59.515 77.3332Z" fill="#DA291C"/>
<path d="M43.1656 61.7296L35.1251 54.0457L-103.571 186.426L-103.647 186.498V201.845L42.9509 61.9347L43.1656 61.7296Z" fill="#DA291C"/>
<path d="M26.8054 46.1158L18.7756 38.4421L-103.571 155.219L-103.647 155.29V170.627L26.5907 46.3312L26.8054 46.1158Z" fill="#DA291C"/>
<path d="M10.456 30.5114L-20.4716 0.986328H-37.6798L-6.18329 31.0653L-103.561 124.011L-103.647 124.083V139.409L10.2413 30.7165L10.456 30.5114Z" fill="#DA291C"/>
<path d="M367.61 0.381636H351.915V0.0126953L350.895 0.986289H366.977L367.61 0.381636Z" fill="#DA291C"/>
<path d="M347.643 19.4523L351.916 15.359L366.977 0.986328H350.896L339.592 11.7787L347.643 19.4523Z" fill="#DA291C"/>
<path d="M334.3 0.965698H318.229L318.208 0.987168H334.278L334.3 0.965698Z" fill="#DA291C"/>
<path d="M330.048 36.2358L338.669 28.0185L322.309 12.4147L334.278 0.986328H318.208L305.659 12.9584L330.048 36.2358Z" fill="#DA291C"/>
<path d="M301.6 0.965698H285.519L285.498 0.987168H301.579L301.6 0.965698Z" fill="#DA291C"/>
<path d="M312.25 52.804L312.465 53.0092L321.096 44.8021L288.375 13.5843L301.579 0.986328H285.498L271.725 14.128L312.25 52.804Z" fill="#DA291C"/>
<path d="M268.891 0.965698H252.82L252.799 0.987168H268.869L268.891 0.965698Z" fill="#DA291C"/>
<path d="M294.676 69.5975L294.891 69.8027L303.501 61.5751L254.442 14.7537L268.869 0.986328H252.799L237.802 15.3077L294.676 69.5975Z" fill="#DA291C"/>
<path d="M236.182 0.965698H222.784L222.806 0.987168H236.171L236.182 0.965698Z" fill="#DA291C"/>
<path d="M236.17 0.986328H222.805L229.482 7.36714L236.17 0.986328Z" fill="#DA291C"/>
<path d="M351.916 185.924V185.934L305.884 229.873L305.659 230.078L330.048 253.356L338.669 245.138L322.319 229.534L351.916 201.271L498.524 61.3499L498.739 61.1345L490.698 53.4608L352.002 185.842L351.916 185.924Z" fill="#DA291C"/>
<path d="M321.085 261.921L288.386 230.704L351.83 170.146L351.916 170.063V170.053L482.164 45.7464L482.379 45.5309L474.349 37.8573L352.002 154.634L351.916 154.716V154.726L271.951 231.053L271.725 231.258L312.465 270.139L321.085 261.921Z" fill="#DA291C"/>
<path d="M51.474 286.779L-92.912 424.586H-76.831L59.5145 294.442L51.474 286.779Z" fill="#DA291C"/>
<path d="M43.1656 278.849L35.1251 271.176L-103.571 403.546L-103.647 403.618V418.965L42.9509 279.054L43.1656 278.849Z" fill="#DA291C"/>
<path d="M26.8054 263.245L18.7756 255.562L-103.571 372.338L-103.647 372.41V387.747L26.5907 263.451L26.8054 263.245Z" fill="#DA291C"/>
<path d="M10.4667 247.631L-46.4074 193.352L-46.6221 193.146L-55.2423 201.364L-6.18328 248.185L-103.571 341.13L-103.647 341.202V356.539L10.2413 247.836L10.4667 247.631Z" fill="#DA291C"/>
<path d="M507.047 286.194L362.05 424.586H378.131L515.088 293.857L507.047 286.194Z" fill="#DA291C"/>
<path d="M351.916 387.172L482.164 262.866L482.379 262.651L474.349 254.977L352.002 371.753L351.916 371.835V371.845L296.663 424.586H312.733L351.916 387.182V387.172Z" fill="#DA291C"/>
<path d="M351.916 355.964L465.814 247.251L466.029 247.046L409.165 192.766L408.94 192.561L400.33 200.779L449.39 247.6L352.001 340.545L351.916 340.627L263.964 424.586H280.034L351.83 356.047L351.916 355.964Z" fill="#DA291C"/>
<path d="M351.916 324.757L431.891 248.42L432.106 248.215L391.581 209.539L391.367 209.334L382.747 217.562L415.456 248.769L352.001 309.327L351.916 309.42L231.254 424.586H247.324L351.83 324.839L351.916 324.757Z" fill="#DA291C"/>
<path d="M213.133 426.013L214.636 424.586H211.641L213.133 426.013Z" fill="#DA291C"/>
<path d="M351.916 293.55V293.54L397.959 249.601L398.173 249.396L373.783 226.118L365.174 234.336L381.523 249.939L351.916 278.203L205.319 418.123L205.093 418.338L211.642 424.586H214.637L351.83 293.632L351.916 293.55Z" fill="#DA291C"/>
<path d="M351.915 246.995L188.968 402.52L188.743 402.735L196.783 410.409L351.829 262.424L351.915 262.342V262.332L364.239 250.575L356.198 242.902L351.915 246.995Z" fill="#DA291C"/>
<path d="M120.157 352.046L112.116 359.72L180.069 424.586H196.15L120.371 352.261L120.157 352.046Z" fill="#DA291C"/>
<path d="M111.183 343.48L102.574 335.263L78.1838 358.54L147.371 424.586H163.452L94.8338 359.084L111.183 343.48Z" fill="#DA291C"/>
<path d="M93.5985 326.707L84.989 318.49L44.4643 357.155L44.2496 357.37L114.671 424.586H130.742L60.8996 357.924L93.5985 326.707Z" fill="#DA291C"/>
<path d="M75.8 310.138L76.0147 309.923L67.4052 301.705L10.5311 355.985L10.3163 356.19L81.9726 424.586H98.0429L26.9664 356.744L75.8 310.138Z" fill="#DA291C"/>
<path d="M2.00745 364.13L-6.03308 371.794L49.2737 424.586H65.3441L2.22214 364.336L2.00745 364.13Z" fill="#DA291C"/>
<path d="M-14.3528 379.734L-22.3826 387.408L16.5748 424.586H32.6451L-14.1273 379.94L-14.3528 379.734Z" fill="#DA291C"/>
<path d="M278.96 301.85L287 294.176L120.371 135.132L120.157 134.927L112.116 142.601L278.734 301.645L278.96 301.85Z" fill="#DA291C"/>
<path d="M262.397 317.237L262.611 317.453L270.652 309.779L94.8338 141.975L111.183 126.361L102.574 118.143L78.1838 141.421L262.397 317.237Z" fill="#DA291C"/>
<path d="M44.2496 140.241L246.036 332.852L246.261 333.057L254.291 325.383L60.8996 140.795L93.3838 109.793L93.5985 109.587L84.989 101.36L44.4643 140.036L44.2496 140.241Z" fill="#DA291C"/>
<path d="M237.942 340.987L26.9664 139.626L75.8 93.0096L76.0254 92.8044L67.4052 84.587L10.5311 138.867L10.3163 139.072L221.292 340.443L172.458 387.049L172.243 387.254L180.853 395.482L237.727 341.202L237.942 340.987Z" fill="#DA291C"/>
<path d="M204.008 339.818L2.22215 147.217L2.00745 147.002L-6.03308 154.675L187.358 339.264L154.874 370.276L154.659 370.481L163.28 378.699L203.794 340.023L204.008 339.818Z" fill="#DA291C"/>
<path d="M-14.1273 162.821L-14.342 162.615L-22.3826 170.279L153.436 338.094L137.075 353.698L145.696 361.915L170.086 338.638L-14.1273 162.821Z" fill="#DA291C"/>
<path d="M-30.6915 178.22L-38.732 185.893L127.886 344.926L128.112 345.141L136.152 337.457L-30.4768 178.425L-30.6915 178.22Z" fill="#DA291C"/>
<path d="M207.293 0.965698H191.212L191.223 0.987168H207.315L207.293 0.965698Z" fill="#DA291C"/>
<path d="M278.95 84.7294L287.001 77.0455L207.379 1.05814L207.315 0.986328H191.223L278.735 84.5242L278.95 84.7294Z" fill="#DA291C"/>
<path d="M174.584 0.965698H158.513L158.535 0.987168H174.605L174.584 0.965698Z" fill="#DA291C"/>
<path d="M262.611 100.323L270.651 92.6491L174.68 1.05814L174.605 0.986328H158.535L262.396 100.118L262.611 100.323Z" fill="#DA291C"/>
<path d="M141.884 0.965698H125.803L125.825 0.987168H141.906L141.884 0.965698Z" fill="#DA291C"/>
<path d="M254.302 108.263L141.981 1.05814L141.906 0.986328H125.825L246.251 115.927L254.302 108.263Z" fill="#DA291C"/>
<path d="M109.187 0.965698H93.1055L93.1269 0.987168H109.208L109.187 0.965698Z" fill="#DA291C"/>
<path d="M172.458 169.92L172.232 170.135L180.852 178.353L237.727 124.073L237.941 123.868L109.282 1.05814L109.207 0.986328H93.1258L221.291 123.314L172.458 169.92Z" fill="#DA291C"/>
<path d="M76.4769 0.965698H60.4066L60.428 0.987168H76.4984L76.4769 0.965698Z" fill="#DA291C"/>
<path d="M154.66 153.361L163.28 161.579L203.794 122.892L204.02 122.687L76.5734 1.05814L76.4982 0.986328H60.4279L187.37 122.144L154.66 153.361Z" fill="#DA291C"/>
<path d="M43.778 0.965698H27.7076L27.7291 0.987168H43.7994L43.778 0.965698Z" fill="#DA291C"/>
<path d="M137.076 136.577L145.696 144.795L170.086 121.518L43.8745 1.05814L43.7993 0.986328H27.729L153.436 120.974L137.076 136.577Z" fill="#DA291C"/>
<path d="M11.0893 0.965698H-4.99176L-4.98103 0.987168H11.1108L11.0893 0.965698Z" fill="#DA291C"/>
<path d="M136.152 120.338L11.1751 1.05814L11.1107 0.986328H-4.98108L128.112 128.022L136.152 120.338Z" fill="#DA291C"/>
<path d="M352.001 217.05L351.916 217.142L339.592 228.899L347.632 236.572L351.916 232.489V232.479L514.873 76.9539L515.088 76.7488L507.047 69.0648L352.001 217.05Z" fill="#DA291C"/>
<path d="M435.08 0.381836H417.871L418.505 0.987786H435.713L435.08 0.381836Z" fill="#DA291C"/>
<path d="M352.001 123.426L351.916 123.508L238.017 232.222L237.802 232.427L294.676 286.707L294.891 286.922L303.501 278.695L254.452 231.873L351.83 138.927L351.916 138.845V138.835L465.814 30.1318L466.029 29.9267L435.713 0.986328H418.505L449.39 30.4807L352.001 123.426Z" fill="#DA291C"/>
<path d="M399.934 0.381836H382.693L383.327 0.987786H400.567L399.934 0.381836Z" fill="#DA291C"/>
<path d="M352.001 92.2085L351.916 92.2906V92.3009L221.668 216.608L221.453 216.823L229.483 224.497L351.83 107.72L351.916 107.638V107.628L431.891 31.3014L432.106 31.0962L400.567 0.986328H383.326L415.456 31.6502L352.001 92.2085Z" fill="#DA291C"/>
<path d="M351.916 61.0727V61.083L205.319 201.004L205.093 201.22L213.134 208.883L351.83 76.5123L351.916 76.42L397.959 32.4812L398.173 32.276L373.783 8.99854L365.174 17.2159L381.523 32.8197L351.916 61.0727Z" fill="#DA291C"/>
<path d="M351.829 45.305L351.915 45.2127L364.239 33.456L356.198 25.7823L351.915 29.8654V29.8756L188.968 185.4L188.743 185.606L196.783 193.279L351.829 45.305Z" fill="#DA291C"/>
<path d="M351.916 418.4L498.524 278.469L498.739 278.264L490.698 270.59L352.002 402.96L351.916 403.053L329.362 424.586H345.432L351.916 418.4Z" fill="#DA291C"/>
<path d="M400.341 417.897L407.34 424.586H424.559L408.94 409.681L400.341 417.897Z" fill="#DA291C"/>
<path d="M575.719 351.461L567.689 359.135L636.254 424.586H652.346L575.945 351.667L575.719 351.461Z" fill="#DA291C"/>
<path d="M566.756 342.895L558.146 334.667L533.756 357.955L603.555 424.586H619.636L550.406 358.498L566.756 342.895Z" fill="#DA291C"/>
<path d="M549.172 326.122L540.562 317.905L500.038 356.57L499.823 356.786L570.857 424.586H586.927L516.473 357.34L549.172 326.122Z" fill="#DA291C"/>
<path d="M531.373 309.555L531.588 309.339L522.978 301.122L466.104 355.401L465.889 355.606L538.157 424.586H554.228L482.539 356.16L531.373 309.555Z" fill="#DA291C"/>
<path d="M457.581 363.547L449.54 371.21L505.459 424.586H521.529L457.795 363.752L457.581 363.547Z" fill="#DA291C"/>
<path d="M441.221 379.15L433.191 386.813L472.76 424.586H488.83L441.446 379.355L441.221 379.15Z" fill="#DA291C"/>
<path d="M424.871 394.754L416.841 402.428L440.061 424.587H456.131L425.096 394.959L424.871 394.754Z" fill="#DA291C"/>
<path d="M575.73 134.342L567.689 142.015L684.368 253.386V238.039L575.945 134.547L575.73 134.342Z" fill="#DA291C"/>
<path d="M566.756 125.777L558.146 117.56L533.756 140.837L684.369 284.594V269.247L550.406 141.381L566.756 125.777Z" fill="#DA291C"/>
<path d="M548.957 109.208L549.172 108.992L540.562 100.775L500.038 139.451L499.823 139.656L684.369 315.801V300.464L516.473 140.21L548.957 109.208Z" fill="#DA291C"/>
<path d="M531.373 92.4244L531.598 92.2192L522.978 83.9916L466.104 138.282L465.889 138.487L676.865 339.859L628.031 386.465L627.816 386.67L636.426 394.897L684.368 349.133V331.672L482.539 139.041L531.373 92.4244Z" fill="#DA291C"/>
<path d="M457.581 146.417L449.54 154.091L642.931 338.679L610.447 369.681L610.233 369.897L618.842 378.114L659.367 339.438L659.582 339.233L457.795 146.633L457.581 146.417Z" fill="#DA291C"/>
<path d="M441.446 162.236L441.231 162.031L433.191 169.694L608.998 337.51L592.649 353.113L601.269 361.331L625.659 338.053L441.446 162.236Z" fill="#DA291C"/>
<path d="M424.881 177.624L416.841 185.308L583.459 344.342L583.684 344.547L591.725 336.874L425.096 177.84L424.881 177.624Z" fill="#DA291C"/>
<path d="M564.856 0.474269L564.759 0.381836H548.678L549.311 0.987786H565.392L564.856 0.474269Z" fill="#DA291C"/>
<path d="M628.031 169.335L627.806 169.54L636.426 177.767L684.368 132.013V114.542L565.392 0.986328H549.311L676.865 122.729L628.031 169.335Z" fill="#DA291C"/>
<path d="M532.146 0.474269L532.049 0.381836H515.979L516.612 0.987786H532.683L532.146 0.474269Z" fill="#DA291C"/>
<path d="M610.233 152.777L618.853 160.995L659.367 122.308L659.592 122.103L532.683 0.986328H516.613L642.932 121.559L610.233 152.777Z" fill="#DA291C"/>
<path d="M499.436 0.474269L499.351 0.381836H483.28L483.914 0.987786H499.984L499.436 0.474269Z" fill="#DA291C"/>
<path d="M592.649 135.993L601.269 144.21L625.659 120.933L499.984 0.986328H483.914L609.009 120.379L592.649 135.993Z" fill="#DA291C"/>
<path d="M466.748 0.474269L466.663 0.381836H450.581L451.215 0.987786H467.296L466.748 0.474269Z" fill="#DA291C"/>
<path d="M591.725 119.753L467.295 0.986328H451.214L583.685 127.426L591.725 119.753Z" fill="#DA291C"/>
</g>
</svg>
