<svg width="581" height="422" viewBox="0 0 581 422" fill="none" xmlns="http://www.w3.org/2000/svg">
<g style="mix-blend-mode:hard-light" opacity="0.35">
<mask id="mask0" style="mask-type:alpha" maskUnits="userSpaceOnUse" x="0" y="0" width="581" height="422">
<rect x="0.812012" y="0.282349" width="580" height="420.73" fill="#C4C4C4"/>
</mask>
<g mask="url(#mask0)">
<path d="M59.9711 76.6466L51.9305 69.0679L-103.115 215.211L-103.191 215.282V230.44L59.7564 76.8492L59.9711 76.6466Z" fill="white"/>
<path d="M43.6216 61.2358L35.5811 53.647L-103.115 184.39L-103.191 184.461V199.619L43.4069 61.4385L43.6216 61.2358Z" fill="white"/>
<path d="M27.2614 45.8152L19.2316 38.2365L-103.115 153.569L-103.191 153.64V168.787L27.0467 46.028L27.2614 45.8152Z" fill="white"/>
<path d="M10.9119 30.4038L-20.0157 1.24396H-37.2239L-5.72735 30.951L-103.105 122.747L-103.191 122.818V137.955L10.6972 30.6065L10.9119 30.4038Z" fill="white"/>
<path d="M368.066 0.646803H352.372V0.282349L351.352 1.2441H367.433L368.066 0.646803Z" fill="white"/>
<path d="M348.099 19.4813L352.372 15.4387L367.433 1.24396H351.352L340.048 11.9027L348.099 19.4813Z" fill="white"/>
<path d="M334.756 1.22375H318.685L318.664 1.24522H334.734L334.756 1.22375Z" fill="white"/>
<path d="M330.505 36.0575L339.125 27.9417L322.765 12.531L334.734 1.24396H318.664L306.115 13.068L330.505 36.0575Z" fill="white"/>
<path d="M302.056 1.22375H285.975L285.954 1.24522H302.035L302.056 1.22375Z" fill="white"/>
<path d="M312.706 52.4206L312.921 52.6232L321.552 44.5176L288.831 13.686L302.036 1.24396H285.954L272.181 14.223L312.706 52.4206Z" fill="white"/>
<path d="M269.347 1.22375H253.276L253.255 1.24522H269.325L269.347 1.22375Z" fill="white"/>
<path d="M295.133 69.0066L295.347 69.2092L303.957 61.0833L254.898 14.8411L269.326 1.24396H253.255L238.258 15.3882L295.133 69.0066Z" fill="white"/>
<path d="M236.638 1.22375H223.24L223.262 1.24522H236.627L236.638 1.22375Z" fill="white"/>
<path d="M236.626 1.24396H223.261L229.938 7.54597L236.626 1.24396Z" fill="white"/>
<path d="M352.372 183.894V183.904L306.34 227.299L306.115 227.502L330.505 250.491L339.125 242.375L322.775 226.965L352.372 199.051L498.98 60.8609L499.195 60.6481L491.154 53.0694L352.458 183.813L352.372 183.894Z" fill="white"/>
<path d="M321.541 258.951L288.842 228.12L352.286 168.311L352.372 168.23V168.219L482.62 45.4501L482.835 45.2373L474.805 37.6586L352.458 152.991L352.372 153.072V153.082L272.407 228.464L272.181 228.667L312.921 267.067L321.541 258.951Z" fill="white"/>
<path d="M51.93 283.502L-92.4561 419.605H-76.3751L59.9705 291.07L51.93 283.502Z" fill="white"/>
<path d="M43.6216 275.669L35.5811 268.091L-103.115 398.824L-103.191 398.895V414.052L43.4069 275.872L43.6216 275.669Z" fill="white"/>
<path d="M27.2614 260.258L19.2316 252.67L-103.115 368.002L-103.191 368.073V383.22L27.0467 260.461L27.2614 260.258Z" fill="white"/>
<path d="M10.9227 244.838L-45.9515 191.23L-46.1662 191.027L-54.7864 199.143L-5.72733 245.385L-103.115 337.181L-103.191 337.252V352.399L10.6973 245.041L10.9227 244.838Z" fill="white"/>
<path d="M507.504 282.924L362.506 419.605H378.587L515.544 290.492L507.504 282.924Z" fill="white"/>
<path d="M352.372 382.653L482.62 259.884L482.835 259.671L474.805 252.092L352.458 367.424L352.372 367.506V367.516L297.119 419.604H313.189L352.372 382.663V382.653Z" fill="white"/>
<path d="M352.372 351.832L466.27 244.463L466.485 244.26L409.622 190.652L409.396 190.449L400.787 198.565L449.846 244.807L352.458 336.603L352.372 336.684L264.42 419.605H280.49L352.286 351.913L352.372 351.832Z" fill="white"/>
<path d="M352.372 321.01L432.348 245.618L432.562 245.415L392.038 207.218L391.823 207.015L383.203 215.141L415.912 245.962L352.458 305.772L352.372 305.863L231.71 419.605H247.78L352.286 321.091L352.372 321.01Z" fill="white"/>
<path d="M213.589 421.013L215.092 419.604H212.097L213.589 421.013Z" fill="white"/>
<path d="M352.372 290.189V290.179L398.415 246.783L398.629 246.581L374.24 223.591L365.63 231.707L381.979 247.118L352.372 275.031L205.775 413.221L205.549 413.434L212.098 419.605H215.093L352.286 290.27L352.372 290.189Z" fill="white"/>
<path d="M352.371 244.21L189.424 397.811L189.199 398.023L197.239 405.602L352.285 259.448L352.371 259.367V259.357L364.695 247.746L356.654 240.167L352.371 244.21Z" fill="white"/>
<path d="M120.613 347.961L112.572 355.54L180.525 419.605H196.606L120.827 348.174L120.613 347.961Z" fill="white"/>
<path d="M111.639 339.501L103.03 331.385L78.6398 354.375L147.827 419.605H163.908L95.2898 354.912L111.639 339.501Z" fill="white"/>
<path d="M94.0545 322.935L85.445 314.819L44.9203 353.007L44.7056 353.22L115.127 419.605H131.198L61.3556 353.767L94.0545 322.935Z" fill="white"/>
<path d="M76.256 306.572L76.4707 306.359L67.8612 298.243L10.9871 351.852L10.7724 352.054L82.4286 419.604H98.4989L27.4224 352.601L76.256 306.572Z" fill="white"/>
<path d="M2.46343 359.896L-5.5771 367.465L49.7298 419.605H65.8001L2.67813 360.099L2.46343 359.896Z" fill="white"/>
<path d="M-13.8968 375.307L-21.9266 382.886L17.0308 419.605H33.1012L-13.6713 375.51L-13.8968 375.307Z" fill="white"/>
<path d="M279.416 298.386L287.456 290.807L120.827 133.731L120.613 133.528L112.572 141.107L279.19 298.183L279.416 298.386Z" fill="white"/>
<path d="M262.853 313.583L263.068 313.796L271.108 306.217L95.2898 140.488L111.639 125.067L103.03 116.952L78.6398 139.941L262.853 313.583Z" fill="white"/>
<path d="M44.7056 138.776L246.492 329.004L246.717 329.207L254.747 321.628L61.3556 139.323L93.8398 108.704L94.0545 108.502L85.445 100.376L44.9203 138.573L44.7056 138.776Z" fill="white"/>
<path d="M238.398 337.039L27.4224 138.168L76.256 92.1282L76.4815 91.9255L67.8612 83.8098L10.9871 137.418L10.7724 137.621L221.748 336.502L172.914 382.531L172.7 382.734L181.309 390.86L238.183 337.252L238.398 337.039Z" fill="white"/>
<path d="M204.464 335.884L2.67813 145.666L2.46343 145.453L-5.5771 153.032L187.814 335.337L155.33 365.966L155.115 366.169L163.736 374.284L204.25 336.087L204.464 335.884Z" fill="white"/>
<path d="M-13.6713 161.076L-13.886 160.874L-21.9266 168.442L153.892 334.182L137.532 349.593L146.152 357.708L170.542 334.719L-13.6713 161.076Z" fill="white"/>
<path d="M-30.2355 176.285L-38.276 183.863L128.342 340.929L128.568 341.142L136.608 333.553L-30.0208 176.487L-30.2355 176.285Z" fill="white"/>
<path d="M207.749 1.22375H191.668L191.679 1.24522H207.771L207.749 1.22375Z" fill="white"/>
<path d="M279.406 83.9513L287.457 76.3625L207.835 1.31488L207.771 1.24396H191.679L279.191 83.7487L279.406 83.9513Z" fill="white"/>
<path d="M175.04 1.22375H158.969L158.991 1.24522H175.061L175.04 1.22375Z" fill="white"/>
<path d="M263.067 99.3522L271.107 91.7734L175.136 1.31488L175.061 1.24396H158.991L262.852 99.1495L263.067 99.3522Z" fill="white"/>
<path d="M142.34 1.22375H126.259L126.281 1.24522H142.362L142.34 1.22375Z" fill="white"/>
<path d="M254.758 107.194L142.437 1.31488L142.362 1.24396H126.281L246.707 114.763L254.758 107.194Z" fill="white"/>
<path d="M109.643 1.22375H93.5615L93.5829 1.24522H109.664L109.643 1.22375Z" fill="white"/>
<path d="M172.914 168.087L172.688 168.3L181.308 176.416L238.183 122.808L238.397 122.605L109.738 1.31488L109.663 1.24396H93.5818L221.747 122.058L172.914 168.087Z" fill="white"/>
<path d="M76.9329 1.22375H60.8626L60.884 1.24522H76.9544L76.9329 1.22375Z" fill="white"/>
<path d="M155.116 151.734L163.736 159.85L204.25 121.642L204.476 121.44L77.0294 1.31488L76.9543 1.24396H60.8839L187.826 120.903L155.116 151.734Z" fill="white"/>
<path d="M44.234 1.22375H28.1636L28.1851 1.24522H44.2554L44.234 1.22375Z" fill="white"/>
<path d="M137.532 135.158L146.152 143.274L170.542 120.285L44.3305 1.31488L44.2554 1.24396H28.185L153.892 119.748L137.532 135.158Z" fill="white"/>
<path d="M11.5453 1.22375H-4.53579L-4.52506 1.24522H11.5667L11.5453 1.22375Z" fill="white"/>
<path d="M136.608 119.119L11.6311 1.31488L11.5667 1.24396H-4.52509L128.568 126.708L136.608 119.119Z" fill="white"/>
<path d="M352.458 214.634L352.372 214.725L340.048 226.336L348.088 233.915L352.372 229.883V229.873L515.329 76.2713L515.544 76.0687L507.504 68.4798L352.458 214.634Z" fill="white"/>
<path d="M435.536 0.647095H418.327L418.961 1.24413H436.169L435.536 0.647095Z" fill="white"/>
<path d="M352.458 122.169L352.372 122.25L238.473 229.619L238.258 229.821L295.133 283.43L295.347 283.643L303.957 275.517L254.908 229.274L352.286 137.479L352.372 137.398V137.387L466.27 30.0289L466.485 29.8263L436.169 1.24396H418.961L449.846 30.3734L352.458 122.169Z" fill="white"/>
<path d="M400.39 0.647095H383.15L383.783 1.24413H401.023L400.39 0.647095Z" fill="white"/>
<path d="M352.458 91.3375L352.372 91.4186V91.4287L222.124 214.198L221.909 214.411L229.939 221.989L352.286 106.657L352.372 106.576V106.566L432.348 31.184L432.562 30.9813L401.023 1.24396H383.782L415.912 31.5284L352.458 91.3375Z" fill="white"/>
<path d="M352.372 60.5873V60.5974L205.775 198.788L205.549 199L213.59 206.569L352.286 75.8359L352.372 75.7448L398.415 32.3495L398.629 32.1468L374.24 9.15735L365.63 17.2731L381.979 32.6838L352.372 60.5873Z" fill="white"/>
<path d="M352.285 45.0144L352.371 44.9232L364.695 33.312L356.654 25.7333L352.371 29.7658V29.7759L189.424 183.377L189.199 183.579L197.239 191.158L352.285 45.0144Z" fill="white"/>
<path d="M352.372 413.495L498.981 275.294L499.195 275.092L491.155 267.513L352.458 398.246L352.372 398.337L329.818 419.604H345.888L352.372 413.495Z" fill="white"/>
<path d="M400.797 412.998L407.796 419.604H425.015L409.396 404.883L400.797 412.998Z" fill="white"/>
<path d="M576.175 347.383L568.146 354.962L636.71 419.605H652.802L576.401 347.586L576.175 347.383Z" fill="white"/>
<path d="M567.212 338.924L558.602 330.798L534.212 353.797L604.012 419.604H620.093L550.862 354.334L567.212 338.924Z" fill="white"/>
<path d="M549.628 322.358L541.019 314.242L500.494 352.429L500.279 352.642L571.313 419.604H587.383L516.929 353.189L549.628 322.358Z" fill="white"/>
<path d="M531.829 305.994L532.044 305.782L523.434 297.666L466.56 351.274L466.345 351.477L538.614 419.605H554.684L482.995 352.024L531.829 305.994Z" fill="white"/>
<path d="M458.037 359.319L449.996 366.888L505.915 419.605H521.985L458.252 359.522L458.037 359.319Z" fill="white"/>
<path d="M441.677 374.729L433.647 382.298L473.216 419.604H489.287L441.902 374.932L441.677 374.729Z" fill="white"/>
<path d="M425.327 390.141L417.297 397.72L440.517 419.605H456.587L425.552 390.344L425.327 390.141Z" fill="white"/>
<path d="M576.186 132.95L568.146 140.529L684.825 250.522V235.364L576.401 133.152L576.186 132.95Z" fill="white"/>
<path d="M567.212 124.49L558.602 116.374L534.212 139.364L684.825 281.343V266.186L550.862 139.901L567.212 124.49Z" fill="white"/>
<path d="M549.413 108.127L549.628 107.914L541.019 99.7988L500.494 137.996L500.279 138.199L684.825 312.165V297.018L516.929 138.746L549.413 108.127Z" fill="white"/>
<path d="M531.829 91.5509L532.055 91.3483L523.434 83.2224L466.56 136.841L466.345 137.044L677.321 335.924L628.487 381.954L628.273 382.157L636.882 390.282L684.825 345.084V327.839L482.995 137.591L531.829 91.5509Z" fill="white"/>
<path d="M458.037 144.876L449.996 152.454L643.388 334.759L610.904 365.378L610.689 365.591L619.298 373.706L659.823 335.509L660.038 335.306L458.252 145.088L458.037 144.876Z" fill="white"/>
<path d="M441.902 160.499L441.688 160.297L433.647 167.865L609.455 333.604L593.105 349.015L601.725 357.131L626.115 334.141L441.902 160.499Z" fill="white"/>
<path d="M425.337 175.697L417.297 183.286L583.915 340.352L584.141 340.555L592.181 332.976L425.552 175.91L425.337 175.697Z" fill="white"/>
<path d="M565.312 0.738169L565.215 0.647095H549.134L549.767 1.24413H565.849L565.312 0.738169Z" fill="white"/>
<path d="M628.487 167.51L628.262 167.712L636.882 175.838L684.825 130.65V113.395L565.848 1.24396H549.767L677.321 121.48L628.487 167.51Z" fill="white"/>
<path d="M532.602 0.738169L532.506 0.647095H516.435L517.069 1.24413H533.139L532.602 0.738169Z" fill="white"/>
<path d="M610.689 151.157L619.309 159.273L659.823 121.065L660.049 120.862L533.139 1.24396H517.069L643.388 120.325L610.689 151.157Z" fill="white"/>
<path d="M499.893 0.738169L499.807 0.647095H483.737L484.37 1.24413H500.44L499.893 0.738169Z" fill="white"/>
<path d="M593.105 134.581L601.725 142.697L626.115 119.707L500.44 1.24396H484.37L609.465 119.16L593.105 134.581Z" fill="white"/>
<path d="M467.205 0.738169L467.119 0.647095H451.038L451.671 1.24413H467.752L467.205 0.738169Z" fill="white"/>
<path d="M592.181 118.542L467.752 1.24396H451.671L584.141 126.121L592.181 118.542Z" fill="white"/>
</g>
</g>
</svg>
