<svg width="581" height="422" viewBox="0 0 581 422" fill="none" xmlns="http://www.w3.org/2000/svg">
<mask id="mask0" style="mask-type:alpha" maskUnits="userSpaceOnUse" x="0" y="0" width="581" height="422">
<rect x="0.812012" y="0.317383" width="580" height="420.73" fill="#EA8C3F"/>
</mask>
<g mask="url(#mask0)">
<path d="M59.539 76.0368L51.4834 68.4438L-103.853 214.861L-103.928 214.932V230.118L59.3239 76.2398L59.539 76.0368Z" fill="#EA8C3F"/>
<path d="M43.1589 60.5973L35.1033 52.9943L-103.853 183.982L-103.928 184.053V199.239L42.9438 60.8003L43.1589 60.5973Z" fill="#EA8C3F"/>
<path d="M26.7681 45.1474L18.7233 37.5544L-103.853 153.103L-103.928 153.174V168.349L26.553 45.3605L26.7681 45.1474Z" fill="#EA8C3F"/>
<path d="M10.3881 29.7075L-20.5974 0.493042H-37.8379L-6.28237 30.2556L-103.842 122.223L-103.928 122.294V137.46L10.173 29.9105L10.3881 29.7075Z" fill="#EA8C3F"/>
<path d="M368.211 -0.10537H352.487V-0.470459L351.465 0.492969H367.576L368.211 -0.10537Z" fill="#EA8C3F"/>
<path d="M348.206 18.7646L352.487 14.7144L367.576 0.493042H351.465L340.14 11.1718L348.206 18.7646Z" fill="#EA8C3F"/>
<path d="M334.838 0.472656H318.738L318.716 0.494166H334.816L334.838 0.472656Z" fill="#EA8C3F"/>
<path d="M330.579 35.3717L339.215 27.2408L322.824 11.8012L334.816 0.493042H318.716L306.143 12.3392L330.579 35.3717Z" fill="#EA8C3F"/>
<path d="M302.077 0.472656H285.966L285.945 0.494166H302.056L302.077 0.472656Z" fill="#EA8C3F"/>
<path d="M312.747 51.7653L312.962 51.9683L321.609 43.8476L288.828 12.9584L302.057 0.493042H285.945L272.147 13.4964L312.747 51.7653Z" fill="#EA8C3F"/>
<path d="M269.307 0.472656H253.206L253.185 0.494166H269.285L269.307 0.472656Z" fill="#EA8C3F"/>
<path d="M295.141 68.3825L295.356 68.5855L303.981 60.4444L254.83 14.1156L269.285 0.493042H253.185L238.16 14.6637L295.141 68.3825Z" fill="#EA8C3F"/>
<path d="M236.536 0.472656H223.114L223.135 0.494166H236.526L236.536 0.472656Z" fill="#EA8C3F"/>
<path d="M236.525 0.493042H223.134L229.824 6.80698L236.525 0.493042Z" fill="#EA8C3F"/>
<path d="M352.487 183.485V183.495L306.369 226.971L306.143 227.174L330.579 250.207L339.215 242.076L322.835 226.636L352.487 198.67L499.37 60.2217L499.585 60.0086L491.529 52.4156L352.573 183.403L352.487 183.485Z" fill="#EA8C3F"/>
<path d="M321.599 258.683L288.838 227.794L352.401 167.873L352.487 167.791V167.781L482.979 44.782L483.194 44.5689L475.149 36.976L352.573 152.524L352.487 152.606V152.616L272.372 228.139L272.147 228.342L312.962 266.814L321.599 258.683Z" fill="#EA8C3F"/>
<path d="M51.4828 283.279L-93.1735 419.637H-77.0624L59.5384 290.862L51.4828 283.279Z" fill="#EA8C3F"/>
<path d="M43.1589 275.432L35.1033 267.839L-103.853 398.817L-103.928 398.888V414.074L42.9438 275.635L43.1589 275.432Z" fill="#EA8C3F"/>
<path d="M26.7681 259.992L18.7233 252.389L-103.853 367.938L-103.928 368.009V383.184L26.553 260.195L26.7681 259.992Z" fill="#EA8C3F"/>
<path d="M10.3988 244.543L-46.5818 190.834L-46.7969 190.631L-55.4333 198.762L-6.28237 245.091L-103.853 337.059L-103.928 337.13V352.305L10.173 244.746L10.3988 244.543Z" fill="#EA8C3F"/>
<path d="M507.909 282.7L362.64 419.637H378.751L515.965 290.283L507.909 282.7Z" fill="#EA8C3F"/>
<path d="M352.487 382.616L482.979 259.617L483.194 259.404L475.15 251.811L352.573 367.359L352.487 367.44V367.451L297.131 419.637H313.231L352.487 382.626V382.616Z" fill="#EA8C3F"/>
<path d="M352.487 351.737L466.599 244.167L466.814 243.964L409.844 190.256L409.618 190.053L400.993 198.184L450.143 244.513L352.573 336.48L352.487 336.561L264.37 419.637H280.471L352.401 351.818L352.487 351.737Z" fill="#EA8C3F"/>
<path d="M352.487 320.858L432.613 245.324L432.828 245.121L392.227 206.852L392.012 206.649L383.376 214.79L416.146 245.669L352.573 305.591L352.487 305.682L231.599 419.637H247.7L352.401 320.939L352.487 320.858Z" fill="#EA8C3F"/>
<path d="M213.445 421.048L214.95 419.637H211.95L213.445 421.048Z" fill="#EA8C3F"/>
<path d="M352.487 289.979V289.968L398.616 246.492L398.831 246.289L374.396 223.256L365.77 231.387L382.15 246.827L352.487 274.793L205.616 413.242L205.39 413.455L211.95 419.637H214.951L352.401 290.06L352.487 289.979Z" fill="#EA8C3F"/>
<path d="M352.486 243.914L189.234 397.802L189.009 398.015L197.064 405.608L352.4 259.181L352.486 259.099V259.089L364.833 247.456L356.778 239.863L352.486 243.914Z" fill="#EA8C3F"/>
<path d="M120.294 347.859L112.238 355.452L180.318 419.637H196.429L120.509 348.073L120.294 347.859Z" fill="#EA8C3F"/>
<path d="M111.304 339.383L102.678 331.252L78.2427 354.285L147.559 419.637H163.671L94.9239 354.823L111.304 339.383Z" fill="#EA8C3F"/>
<path d="M93.6862 322.787L85.0606 314.656L44.46 352.915L44.2449 353.128L114.799 419.637H130.899L60.9261 353.676L93.6862 322.787Z" fill="#EA8C3F"/>
<path d="M75.8544 306.393L76.0695 306.18L67.4439 298.049L10.4633 351.757L10.2482 351.96L82.0386 419.637H98.139L26.9294 352.509L75.8544 306.393Z" fill="#EA8C3F"/>
<path d="M1.92368 359.817L-6.1319 367.4L49.2785 419.637H65.3789L2.13878 360.02L1.92368 359.817Z" fill="#EA8C3F"/>
<path d="M-14.4671 375.256L-22.512 382.849L16.5184 419.636H32.6188L-14.2413 375.459L-14.4671 375.256Z" fill="#EA8C3F"/>
<path d="M279.395 298.191L287.45 290.598L120.509 133.228L120.294 133.025L112.238 140.617L279.169 297.988L279.395 298.191Z" fill="#EA8C3F"/>
<path d="M262.8 313.417L263.016 313.63L271.071 306.037L94.9239 139.998L111.304 124.549L102.678 116.418L78.2427 139.45L262.8 313.417Z" fill="#EA8C3F"/>
<path d="M44.2449 138.282L246.409 328.867L246.635 329.07L254.68 321.477L60.9261 138.831L93.4711 108.154L93.6862 107.951L85.0606 99.8103L44.46 138.079L44.2449 138.282Z" fill="#EA8C3F"/>
<path d="M238.3 336.917L26.9294 137.674L75.8544 91.5476L76.0803 91.3445L67.4439 83.2136L10.4633 136.922L10.2482 137.125L221.619 336.379L172.693 382.494L172.478 382.697L181.104 390.838L238.085 337.13L238.3 336.917Z" fill="#EA8C3F"/>
<path d="M204.303 335.759L2.13879 145.185L1.92369 144.972L-6.1319 152.565L187.622 335.211L155.077 365.898L154.862 366.101L163.498 374.232L204.088 335.962L204.303 335.759Z" fill="#EA8C3F"/>
<path d="M-14.2413 160.625L-14.4564 160.422L-22.512 168.005L153.635 334.054L137.245 349.493L145.881 357.624L170.317 334.592L-14.2413 160.625Z" fill="#EA8C3F"/>
<path d="M-30.8364 175.861L-38.892 183.454L128.038 340.814L128.264 341.028L136.32 333.425L-30.6213 176.064L-30.8364 175.861Z" fill="#EA8C3F"/>
<path d="M207.594 0.472656H191.483L191.494 0.494166H207.616L207.594 0.472656Z" fill="#EA8C3F"/>
<path d="M279.384 83.3552L287.451 75.7522L207.68 0.564099L207.615 0.493042H191.494L279.169 83.1522L279.384 83.3552Z" fill="#EA8C3F"/>
<path d="M174.823 0.472656H158.723L158.744 0.494166H174.845L174.823 0.472656Z" fill="#EA8C3F"/>
<path d="M263.015 98.7848L271.071 91.1918L174.92 0.564099L174.845 0.493042H158.744L262.8 98.5817L263.015 98.7848Z" fill="#EA8C3F"/>
<path d="M142.063 0.472656H125.951L125.973 0.494166H142.084L142.063 0.472656Z" fill="#EA8C3F"/>
<path d="M254.691 106.641L142.16 0.564099L142.084 0.493042H125.973L246.624 114.224L254.691 106.641Z" fill="#EA8C3F"/>
<path d="M109.303 0.472656H93.1923L93.2138 0.494166H109.325L109.303 0.472656Z" fill="#EA8C3F"/>
<path d="M172.693 167.649L172.467 167.862L181.104 175.993L238.084 122.284L238.299 122.081L109.399 0.564099L109.324 0.493042H93.2127L221.618 121.533L172.693 167.649Z" fill="#EA8C3F"/>
<path d="M76.5325 0.472656H60.4321L60.4536 0.494166H76.5541L76.5325 0.472656Z" fill="#EA8C3F"/>
<path d="M154.862 151.265L163.498 159.396L204.088 121.117L204.314 120.914L76.6292 0.564099L76.554 0.493042H60.4536L187.633 120.376L154.862 151.265Z" fill="#EA8C3F"/>
<path d="M43.7724 0.472656H27.672L27.6935 0.494166H43.7939L43.7724 0.472656Z" fill="#EA8C3F"/>
<path d="M137.245 134.658L145.881 142.789L170.317 119.757L43.8692 0.564099L43.7939 0.493042H27.6935L153.636 119.219L137.245 134.658Z" fill="#EA8C3F"/>
<path d="M11.0225 0.472656H-5.08862L-5.07787 0.494166H11.0441L11.0225 0.472656Z" fill="#EA8C3F"/>
<path d="M136.32 118.589L11.1086 0.564099L11.0441 0.493042H-5.07788L128.264 126.192L136.32 118.589Z" fill="#EA8C3F"/>
<path d="M352.573 214.283L352.487 214.374L340.14 226.007L348.196 233.6L352.487 229.56V229.55L515.75 75.6611L515.965 75.4581L507.909 67.855L352.573 214.283Z" fill="#EA8C3F"/>
<path d="M435.807 -0.10498H418.566L419.201 0.494324H436.441L435.807 -0.10498Z" fill="#EA8C3F"/>
<path d="M352.573 121.645L352.487 121.726L238.375 229.295L238.16 229.499L295.141 283.207L295.356 283.42L303.981 275.279L254.841 228.95L352.401 136.983L352.487 136.902V136.891L466.599 29.3319L466.814 29.1289L436.441 0.493042H419.201L450.143 29.677L352.573 121.645Z" fill="#EA8C3F"/>
<path d="M400.595 -0.10498H383.322L383.957 0.494324H401.23L400.595 -0.10498Z" fill="#EA8C3F"/>
<path d="M352.573 90.7553L352.487 90.8365V90.8466L221.995 213.846L221.78 214.059L229.825 221.652L352.401 106.104L352.487 106.022V106.012L432.613 30.4891L432.828 30.2861L401.229 0.493042H383.956L416.146 30.8342L352.573 90.7553Z" fill="#EA8C3F"/>
<path d="M352.487 59.9475V59.9577L205.616 198.407L205.39 198.62L213.445 206.203L352.401 75.2247L352.487 75.1334L398.616 31.6568L398.831 31.4538L374.396 8.42126L365.77 16.5522L382.15 31.9918L352.487 59.9475Z" fill="#EA8C3F"/>
<path d="M352.4 44.3455L352.486 44.2541L364.833 32.6211L356.778 25.0282L352.486 29.0683V29.0784L189.234 182.967L189.009 183.17L197.064 190.763L352.4 44.3455Z" fill="#EA8C3F"/>
<path d="M352.488 413.516L499.37 275.056L499.585 274.853L491.53 267.26L352.574 398.238L352.488 398.33L329.891 419.637H345.991L352.488 413.516Z" fill="#EA8C3F"/>
<path d="M401.003 413.018L408.015 419.637H425.267L409.618 404.887L401.003 413.018Z" fill="#EA8C3F"/>
<path d="M576.71 347.281L568.665 354.873L637.358 419.637H653.48L576.935 347.484L576.71 347.281Z" fill="#EA8C3F"/>
<path d="M567.729 338.804L559.104 330.663L534.668 353.706L604.598 419.637H620.709L551.349 354.244L567.729 338.804Z" fill="#EA8C3F"/>
<path d="M550.113 322.208L541.487 314.077L500.886 352.336L500.671 352.549L571.838 419.636H587.938L517.352 353.097L550.113 322.208Z" fill="#EA8C3F"/>
<path d="M532.28 305.814L532.495 305.601L523.87 297.47L466.889 351.179L466.674 351.382L539.077 419.637H555.178L483.355 351.93L532.28 305.814Z" fill="#EA8C3F"/>
<path d="M458.35 359.239L450.294 366.821L506.318 419.637H522.418L458.565 359.442L458.35 359.239Z" fill="#EA8C3F"/>
<path d="M441.959 374.678L433.914 382.261L473.558 419.636H489.658L442.185 374.881L441.959 374.678Z" fill="#EA8C3F"/>
<path d="M425.578 390.118L417.534 397.711L440.797 419.637H456.897L425.804 390.321L425.578 390.118Z" fill="#EA8C3F"/>
<path d="M576.72 132.446L568.665 140.039L685.562 250.237V235.052L576.935 132.649L576.72 132.446Z" fill="#EA8C3F"/>
<path d="M567.729 123.97L559.104 115.839L534.668 138.872L685.562 281.117V265.931L551.349 139.41L567.729 123.97Z" fill="#EA8C3F"/>
<path d="M549.897 107.576L550.113 107.363L541.487 99.2319L500.886 137.501L500.671 137.704L685.563 311.996V296.82L517.352 138.252L549.897 107.576Z" fill="#EA8C3F"/>
<path d="M532.28 90.9691L532.506 90.7661L523.87 82.625L466.889 136.344L466.674 136.547L678.044 335.8L629.119 381.916L628.904 382.119L637.53 390.26L685.562 344.976V327.699L483.355 137.095L532.28 90.9691Z" fill="#EA8C3F"/>
<path d="M458.35 144.394L450.294 151.986L644.048 334.633L611.503 365.309L611.288 365.522L619.913 373.653L660.514 335.384L660.729 335.181L458.565 144.607L458.35 144.394Z" fill="#EA8C3F"/>
<path d="M442.185 160.046L441.97 159.843L433.914 167.426L610.051 333.476L593.671 348.915L602.307 357.046L626.743 334.014L442.185 160.046Z" fill="#EA8C3F"/>
<path d="M425.589 175.273L417.534 182.876L584.464 340.236L584.69 340.439L592.745 332.846L425.804 175.486L425.589 175.273Z" fill="#EA8C3F"/>
<path d="M565.826 -0.0135611L565.729 -0.10498H549.618L550.252 0.494324H566.363L565.826 -0.0135611Z" fill="#EA8C3F"/>
<path d="M629.119 167.07L628.893 167.273L637.53 175.414L685.562 130.141V112.854L566.363 0.493042H550.252L678.044 120.954L629.119 167.07Z" fill="#EA8C3F"/>
<path d="M533.055 -0.0135611L532.958 -0.10498H516.857L517.492 0.494324H533.592L533.055 -0.0135611Z" fill="#EA8C3F"/>
<path d="M611.288 150.687L619.924 158.818L660.514 120.538L660.74 120.335L533.593 0.493042H517.492L644.048 119.797L611.288 150.687Z" fill="#EA8C3F"/>
<path d="M500.284 -0.0135611L500.198 -0.10498H484.098L484.732 0.494324H500.833L500.284 -0.0135611Z" fill="#EA8C3F"/>
<path d="M593.671 134.08L602.307 142.21L626.743 119.178L500.833 0.493042H484.732L610.062 118.63L593.671 134.08Z" fill="#EA8C3F"/>
<path d="M467.535 -0.0135611L467.449 -0.10498H451.337L451.972 0.494324H468.083L467.535 -0.0135611Z" fill="#EA8C3F"/>
<path d="M592.745 118.011L468.083 0.493042H451.972L584.69 125.604L592.745 118.011Z" fill="#EA8C3F"/>
</g>
</svg>
